<svg xmlns="http://www.w3.org/2000/svg" viewBox="0 0 130 54" fill="none"><path d="M130 42C130 48.6274 124.627 54 118 54H12C5.37259 54 7.87533e-06 48.6274 1.759e-05 42L6.15649e-05 12.0001C7.12796e-05 5.37265 5.37265 5.9491e-05 12.0001 5.63274e-05L118 5.72821e-06C124.627 2.56461e-06 130 5.37259 130 12V42Z" fill="#EFF5FB"></path><path d="M25.774 26.9805C25.774 25.3955 26.6289 23.9038 28.0537 23.0646C27.1988 21.8526 25.774 21.1067 24.2542 21.0134C22.6395 20.827 21.1197 21.9458 20.2648 21.9458C19.4099 21.9458 18.1751 21.0134 16.8453 21.0134C15.0405 21.1067 13.4257 22.039 12.5708 23.5308C10.7661 26.6076 12.0959 31.2694 13.9007 33.7868C14.7555 34.9988 15.8004 36.3974 17.1302 36.3974C18.46 36.3041 18.935 35.5583 20.5498 35.5583C22.1645 35.5583 22.5445 36.3974 23.9693 36.3974C25.3941 36.3974 26.249 35.1853 27.1039 33.88C27.7688 33.0409 28.2437 32.0153 28.5287 30.9897C26.8189 30.4303 25.774 28.752 25.774 26.9805Z" fill="#323748"></path><path d="M23.114 19.4281C23.8739 18.4957 24.2538 17.3769 24.1588 16.1648C23.019 16.258 21.8792 16.8174 21.1193 17.7498C20.3594 18.5889 19.9794 19.7078 20.0744 20.9198C21.3092 20.9198 22.3541 20.3604 23.114 19.4281Z" fill="#323748"></path><path d="M46.706 34.8105H41.8011L40.6531 38.2934H38.5659L43.2621 25.5913H45.3493L50.0455 38.2934H47.9583L46.706 34.8105ZM42.3229 33.274H46.2885L44.3057 27.64H44.2013L42.3229 33.274Z" fill="#323748"></path><path d="M60.1684 33.6854C60.1684 36.5536 58.603 38.3974 56.2028 38.3974C54.9504 38.4999 53.8025 37.7828 53.2807 36.7585V41.3681H51.2979V29.0758H53.1763V30.6123C53.8025 29.588 54.9504 28.9733 56.2028 28.9733C58.4987 28.8709 60.1684 30.8172 60.1684 33.6854ZM58.0812 33.6854C58.0812 31.8415 57.142 30.6123 55.5766 30.6123C54.1156 30.6123 53.072 31.8415 53.072 33.6854C53.072 35.5292 54.1156 36.7585 55.5766 36.7585C57.142 36.7585 58.0812 35.5292 58.0812 33.6854Z" fill="#323748"></path><path d="M70.5005 33.6854C70.5005 36.5536 68.9351 38.3974 66.5348 38.3974C65.2825 38.4999 64.1345 37.7828 63.6127 36.7585V41.3681H61.6299V29.0758H63.5084V30.6123C64.1345 29.588 65.2825 28.9733 66.5348 28.9733C68.9351 28.8709 70.5005 30.8172 70.5005 33.6854ZM68.5176 33.6854C68.5176 31.8415 67.5784 30.6123 66.013 30.6123C64.552 30.6123 63.5084 31.8415 63.5084 33.6854C63.5084 35.5292 64.552 36.7585 66.013 36.7585C67.5784 36.7585 68.5176 35.5292 68.5176 33.6854Z" fill="#323748"></path><path d="M77.3879 34.7086C77.4922 35.9379 78.7446 36.7573 80.5187 36.7573C82.1884 36.7573 83.3364 35.9379 83.3364 34.8111C83.3364 33.7867 82.6059 33.2745 80.9361 32.8648L79.2664 32.455C76.8661 31.8404 75.8225 30.8161 75.8225 29.0747C75.8225 26.9235 77.8053 25.387 80.5187 25.387C83.232 25.387 85.1105 26.9235 85.2149 29.0747H83.232C83.1277 27.8454 82.0841 27.0259 80.5187 27.0259C78.9533 27.0259 77.9097 27.8454 77.9097 28.9722C77.9097 29.8941 78.6402 30.4063 80.31 30.8161L81.771 31.1234C84.38 31.738 85.5279 32.7623 85.5279 34.6062C85.5279 36.9622 83.5451 38.4988 80.5187 38.4988C77.5966 38.4988 75.7181 37.0647 75.6138 34.7086H77.3879Z" fill="#323748"></path><path d="M89.493 26.821V28.9722H91.2671V30.5087H89.493V35.6305C89.493 36.45 89.8061 36.7573 90.6409 36.7573C90.8496 36.7573 91.0584 36.7573 91.2671 36.7573V38.2939C90.954 38.3963 90.5366 38.3963 90.2235 38.3963C88.345 38.3963 87.6145 37.6793 87.6145 35.9378V30.6112H86.2578V29.0746H87.6145V26.9235H89.493V26.821Z" fill="#323748"></path><path d="M92.416 33.685C92.416 30.8167 94.1901 28.9729 96.9035 28.9729C99.6168 28.9729 101.391 30.8167 101.391 33.685C101.391 36.6556 99.6168 38.397 96.9035 38.397C94.0858 38.397 92.416 36.5532 92.416 33.685ZM99.4081 33.685C99.4081 31.6362 98.4689 30.5094 96.9035 30.5094C95.3381 30.5094 94.3989 31.6362 94.3989 33.685C94.3989 35.7337 95.3381 36.8605 96.9035 36.8605C98.4689 36.8605 99.4081 35.6312 99.4081 33.685Z" fill="#323748"></path><path d="M102.955 28.9726H104.834V30.6116C105.042 29.5872 106.086 28.8702 107.129 28.9726C107.338 28.9726 107.547 28.9726 107.756 29.0751V30.8165C107.443 30.714 107.129 30.714 106.921 30.714C105.877 30.714 104.938 31.5335 104.938 32.5579C104.938 32.6603 104.938 32.7628 104.938 32.8652V38.3967H102.955V28.9726Z" fill="#323748"></path><path d="M116.731 35.5277C116.418 37.1667 114.748 38.3959 112.661 38.3959C109.948 38.3959 108.174 36.5521 108.174 33.6839C108.174 30.8157 109.844 28.8694 112.557 28.8694C115.166 28.8694 116.836 30.6108 116.836 33.479V34.0936H110.157V34.1961C110.052 35.5277 110.992 36.6545 112.348 36.8594C112.453 36.8594 112.557 36.8594 112.661 36.8594C113.601 36.9618 114.54 36.4496 114.853 35.5277H116.731ZM110.157 32.762H114.853C114.957 31.5327 113.914 30.5084 112.661 30.4059C112.557 30.4059 112.557 30.4059 112.453 30.4059C111.2 30.4059 110.157 31.4303 110.157 32.762Z" fill="#323748"></path><path d="M41.9009 15.4168C43.3714 15.3206 44.5478 16.3791 44.6459 17.7262C44.6459 17.9187 44.6459 18.0149 44.6459 18.2074C44.6459 20.0357 43.6655 21.0942 41.9009 21.0942H39.7441V15.3206H41.9009V15.4168ZM40.7245 20.4206H41.8029C42.7832 20.5168 43.6655 19.747 43.7636 18.6885C43.7636 18.5923 43.7636 18.3998 43.7636 18.3036C43.8616 17.3413 43.1753 16.3791 42.195 16.2828C42.097 16.2828 41.9989 16.2828 41.8029 16.2828H40.7245V20.4206Z" fill="#2E315D" stroke="white" stroke-width="0.1"></path><path d="M45.7231 18.9784C45.6251 17.8237 46.4093 16.8614 47.5858 16.7652C48.7622 16.669 49.7425 17.4388 49.8405 18.5935C49.8405 18.6897 49.8405 18.8822 49.8405 18.9784C49.9386 20.1331 49.1543 21.0954 47.9779 21.1916C46.8015 21.2879 45.8211 20.518 45.7231 19.3633C45.7231 19.2671 45.7231 19.1709 45.7231 18.9784ZM48.9582 18.9784C48.9582 18.0161 48.5661 17.535 47.7818 17.535C46.9975 17.535 46.6054 18.1124 46.6054 18.9784C46.6054 19.9407 46.9975 20.518 47.7818 20.518C48.5661 20.518 48.9582 19.9407 48.9582 18.9784Z" fill="#2E315D" stroke="white" stroke-width="0.1"></path><path d="M55.4302 21.1894H54.5478L53.6655 18.0139H53.5675L52.6852 21.1894H51.8029L50.6265 16.8591H51.5088L52.2931 20.1309H52.3911L53.2734 16.8591H54.1557L55.038 20.1309H55.136L55.9203 16.8591H56.8026L55.4302 21.1894Z" fill="#2E315D" stroke="white" stroke-width="0.1"></path><path d="M57.6851 16.8606H58.5674V17.5342H58.6654C58.8615 17.053 59.4497 16.7644 59.9399 16.7644C60.7241 16.6681 61.4104 17.2455 61.5084 18.1115C61.5084 18.2078 61.5084 18.304 61.5084 18.4002V21.1908H60.6261V18.5927C60.6261 17.9191 60.332 17.5342 59.6457 17.5342C59.0575 17.5342 58.5674 17.9191 58.5674 18.4965C58.5674 18.5927 58.5674 18.5927 58.5674 18.6889V21.1908H57.6851V16.8606Z" fill="#2E315D" stroke="white" stroke-width="0.1"></path><path d="M62.7817 15.1277H63.664V21.19H62.7817V15.1277Z" fill="#2E315D" stroke="white" stroke-width="0.1"></path><path d="M64.8403 18.9784C64.7423 17.8237 65.5265 16.8614 66.7029 16.7652C67.8794 16.669 68.8597 17.4388 68.9577 18.5935C68.9577 18.6897 68.9577 18.8822 68.9577 18.9784C69.0558 20.1331 68.2715 21.0954 67.0951 21.1916C65.9187 21.2879 64.9383 20.518 64.8403 19.3633C64.8403 19.2671 64.8403 19.1709 64.8403 18.9784ZM68.1735 18.9784C68.1735 18.0161 67.7813 17.535 66.997 17.535C66.2128 17.535 65.8206 18.1124 65.8206 18.9784C65.8206 19.9407 66.2128 20.518 66.997 20.518C67.6833 20.518 68.1735 19.9407 68.1735 18.9784Z" fill="#2E315D" stroke="white" stroke-width="0.1"></path><path d="M69.9384 19.9392C69.9384 19.1694 70.5266 18.6882 71.6049 18.6882L72.7814 18.592V18.2071C72.7814 17.7259 72.4873 17.5335 71.8991 17.5335C71.4089 17.5335 71.1148 17.7259 71.0167 18.0146H70.1344C70.2325 17.2448 70.9187 16.7637 71.8991 16.7637C72.9774 16.7637 73.6637 17.341 73.6637 18.2071V21.1901H72.7814V20.6128H72.6833C72.3892 21.0939 71.8991 21.2864 71.3108 21.2864C70.6246 21.3826 69.9384 20.8052 69.8403 20.1316C69.9384 20.0354 69.9384 20.0354 69.9384 19.9392ZM72.7814 19.5543V19.1694L71.703 19.2656C71.1148 19.2656 70.8207 19.5543 70.8207 19.8429C70.8207 20.2279 71.2128 20.4203 71.6049 20.4203C72.1932 20.6128 72.6833 20.2279 72.7814 19.5543C72.7814 19.6505 72.7814 19.6505 72.7814 19.5543Z" fill="#2E315D"></path><path d="M72.7814 19.5543V19.1694L71.703 19.2656C71.1148 19.2656 70.8207 19.5543 70.8207 19.8429C70.8207 20.2279 71.2128 20.4203 71.6049 20.4203C72.1932 20.6128 72.6833 20.2279 72.7814 19.5543ZM72.7814 19.5543C72.7814 19.6505 72.7814 19.6505 72.7814 19.5543ZM69.9384 19.9392C69.9384 19.1694 70.5266 18.6882 71.6049 18.6882L72.7814 18.592V18.2071C72.7814 17.7259 72.4873 17.5335 71.8991 17.5335C71.4089 17.5335 71.1148 17.7259 71.0167 18.0146H70.1344C70.2325 17.2448 70.9187 16.7637 71.8991 16.7637C72.9774 16.7637 73.6637 17.341 73.6637 18.2071V21.1901H72.7814V20.6128H72.6833C72.3892 21.0939 71.8991 21.2864 71.3108 21.2864C70.6246 21.3826 69.9384 20.8052 69.8403 20.1316C69.9384 20.0354 69.9384 20.0354 69.9384 19.9392Z" stroke="white" stroke-width="0.1"></path><path d="M74.7417 18.9768C74.7417 17.6296 75.4279 16.7635 76.6043 16.7635C77.1926 16.7635 77.6827 17.0522 77.9768 17.5334H78.0749V15.1277H78.9572V21.19H78.0749V20.5164H77.9768C77.6827 20.9975 77.1926 21.2862 76.6043 21.2862C75.526 21.2862 74.7417 20.4202 74.7417 18.9768ZM75.722 18.9768C75.722 19.939 76.2122 20.4202 76.8985 20.4202C77.5847 20.4202 78.0749 19.8428 78.0749 18.9768C78.0749 18.1107 77.5847 17.5334 76.8985 17.5334C76.1142 17.5334 75.722 18.1107 75.722 18.9768Z" fill="#2E315D" stroke="white" stroke-width="0.1"></path><path d="M82.4868 18.9784C82.3887 17.8237 83.173 16.8614 84.3494 16.7652C85.5258 16.669 86.5062 17.4388 86.6042 18.5935C86.6042 18.6897 86.6042 18.8822 86.6042 18.9784C86.7023 20.1331 85.918 21.0954 84.7416 21.1916C83.5652 21.2879 82.5848 20.518 82.4868 19.3633C82.4868 19.2671 82.4868 19.1709 82.4868 18.9784ZM85.82 18.9784C85.82 18.0161 85.4278 17.535 84.6435 17.535C83.8593 17.535 83.4671 18.1124 83.4671 18.9784C83.4671 19.9407 83.8593 20.518 84.6435 20.518C85.3298 20.518 85.82 19.9407 85.82 18.9784Z" fill="#2E315D" stroke="white" stroke-width="0.1"></path><path d="M87.8799 16.8606H88.7622V17.5342H88.8602C89.0563 17.053 89.6445 16.7644 90.1347 16.7644C90.919 16.6681 91.6052 17.2455 91.7032 18.1115C91.7032 18.2078 91.7032 18.304 91.7032 18.4002V21.1908H90.8209V18.5927C90.8209 17.9191 90.5268 17.5342 89.8406 17.5342C89.2524 17.5342 88.7622 17.9191 88.7622 18.4965C88.7622 18.5927 88.7622 18.5927 88.7622 18.6889V21.1908H87.8799V16.8606Z" fill="#2E315D" stroke="white" stroke-width="0.1"></path><path d="M96.5059 15.8013V16.8598H97.4863V17.6296H96.5059V19.8428C96.5059 20.3239 96.702 20.5164 97.0941 20.5164C97.1922 20.5164 97.2902 20.5164 97.3882 20.5164V21.19C97.1922 21.19 97.0941 21.19 96.8981 21.19C95.9177 21.19 95.5256 20.9013 95.5256 20.0353V17.6296H94.8394V16.956H95.5256V15.8013H96.5059Z" fill="#2E315D" stroke="white" stroke-width="0.1"></path><path d="M98.6616 15.1277H99.5439V17.5334H99.642C99.838 17.0522 100.426 16.6673 101.014 16.7635C101.799 16.7635 102.485 17.3409 102.583 18.1107C102.583 18.207 102.583 18.3032 102.583 18.3994V21.19H101.701V18.5919C101.701 17.9183 101.407 17.5334 100.72 17.5334C100.132 17.5334 99.642 17.9183 99.642 18.4956C99.642 18.5919 99.642 18.5919 99.642 18.6881V21.19H98.7597L98.6616 15.1277Z" fill="#2E315D" stroke="white" stroke-width="0.1"></path><path d="M107.585 20.0346C107.389 20.8044 106.507 21.3818 105.624 21.2856C104.546 21.2856 103.566 20.4195 103.566 19.361C103.566 19.2648 103.566 19.1686 103.566 19.0724C103.37 18.0139 104.154 16.9554 105.33 16.8591C105.428 16.8591 105.526 16.8591 105.624 16.8591C106.899 16.8591 107.585 17.7252 107.585 19.0724V19.361H104.448C104.35 20.0346 104.84 20.5158 105.526 20.612H105.624C106.017 20.7082 106.507 20.4195 106.703 20.1309L107.585 20.0346ZM104.448 18.5912H106.703C106.703 18.0139 106.311 17.5327 105.722 17.4365H105.624C105.036 17.5327 104.448 18.0139 104.448 18.5912Z" fill="#2E315D" stroke="white" stroke-width="0.1"></path></svg>