<svg xmlns="http://www.w3.org/2000/svg" viewBox="0 0 140 140" fill="none"><path d="M112.653 10.2392C93.9865 10.635 81.5037 34.7528 61.7918 48.2587C42.0799 61.7645 -4.96861 42.3515 2.87282 85.6657C10.7142 128.98 88.505 148.77 121.241 98.7347C153.977 48.6993 130.203 9.86584 112.653 10.2392Z" fill="#DFF5FE"></path><path d="M42.0494 131.687L35.8622 114.537L16.9756 117.21L42.2959 73.3582L67.3698 87.8348L42.0494 131.687Z" fill="#FFD000"></path><path d="M96.9958 131.687L103.187 114.537L122.07 117.21L96.7531 73.3582L71.6792 87.8348L96.9958 131.687Z" fill="#FFD000"></path><g style="mix-blend-mode:multiply"><g style="mix-blend-mode:multiply" opacity="0.42"><path d="M31.8373 95.7658C35.9074 96.3147 39.5854 97.8158 42.8714 100.276C44.294 101.665 45.7204 103.058 47.143 104.447C49.7008 107.412 51.1422 111.075 51.7471 114.888L67.3665 87.8348L42.2926 73.3582L29.4961 95.5231C30.269 95.553 31.0495 95.6351 31.8373 95.7621V95.7658Z" fill="#FFD000"></path></g><g style="mix-blend-mode:multiply" opacity="0.42"><path d="M95.4722 99.3803C97.8881 97.3191 100.625 96.001 103.68 95.4297C105.367 94.795 107.096 94.4328 108.859 94.3319L96.7492 73.3582L71.6753 87.8348L86.8578 114.13C87.5299 108.603 91.2154 102.748 95.4722 99.3803Z" fill="#FFD000"></path></g></g><path d="M119.187 59.0608C119.187 64.1353 113.284 68.2165 111.797 72.7944C110.311 77.3723 112.582 84.3025 109.706 88.2531C106.831 92.2036 99.6357 92.1066 95.6441 95.0116C91.6935 97.8868 89.6249 104.761 84.8752 106.303C80.1255 107.845 74.5992 103.495 69.5247 103.495C64.4502 103.495 58.7558 107.793 54.1742 106.303C49.5925 104.813 47.3558 97.8868 43.4052 95.0116C39.4136 92.1066 32.248 92.241 29.343 88.2531C26.4678 84.3025 28.7903 77.5403 27.2519 72.7944C25.7135 68.0485 19.8623 64.1353 19.8623 59.0571C19.8623 53.9788 25.7657 49.9013 27.2519 45.3235C28.738 40.7456 26.4678 33.8153 29.343 29.8648C32.248 25.8731 39.4136 26.0113 43.4052 23.1063C47.3969 20.2012 49.4245 13.3568 54.1742 11.8147C58.9238 10.2726 64.4502 14.6227 69.5247 14.6227C74.5992 14.6227 80.2936 10.3248 84.8752 11.8147C89.4568 13.3046 91.6935 20.2311 95.6441 23.1063C99.6357 26.0113 106.801 25.8769 109.706 29.8648C112.582 33.8153 110.259 40.5776 111.797 45.3235C113.336 50.0694 119.187 53.9826 119.187 59.0608Z" fill="#02CCAA"></path><path d="M61.7846 102.26C59.7458 102.965 57.8228 103.634 56.2694 103.634C55.8288 103.634 55.4442 103.578 55.097 103.466C53.3121 102.887 51.8036 100.702 50.2017 98.3911" stroke="#9EEDD2" stroke-width="1.5" stroke-linecap="round" stroke-linejoin="round"></path><path d="M108.243 79.6499C108.296 82.4205 108.348 85.0418 107.288 86.4943C106.208 87.9767 103.684 88.7384 101.014 89.545C98.5426 90.2918 95.9885 91.061 93.8862 92.5956C91.8101 94.1079 90.3053 96.2811 88.849 98.387C87.2509 100.698 85.7386 102.883 83.9537 103.462C83.6065 103.574 83.2256 103.63 82.7813 103.63C81.2279 103.63 79.3049 102.961 77.2661 102.255" stroke="#9EEDD2" stroke-width="1.5" stroke-linecap="round" stroke-linejoin="round"></path><path d="M101.015 28.573C103.684 29.3795 106.209 30.1413 107.288 31.6237" stroke="#9EEDD2" stroke-width="1.5" stroke-linecap="round" stroke-linejoin="round"></path><path d="M45.1646 25.5222C47.2407 24.0099 48.7455 21.8368 50.2017 19.7308C51.7999 17.4195 53.3122 15.2351 55.097 14.6563C55.4443 14.5443 55.8252 14.4883 56.2695 14.4883C57.8228 14.4883 59.7459 15.1567 61.7846 15.8624C64.2678 16.7212 66.8368 17.6136 69.5252 17.6136C72.2137 17.6136 74.7827 16.7249 77.2658 15.8624C79.3046 15.1567 81.2276 14.4883 82.781 14.4883C83.2216 14.4883 83.6062 14.5443 83.9535 14.6563C85.7383 15.2351 87.2469 17.4195 88.8488 19.7308" stroke="#9EEDD2" stroke-width="1.5" stroke-linecap="round" stroke-linejoin="round"></path><path d="M22.8501 59.0609C22.8501 57.1192 24.4744 54.9908 26.1958 52.7355C27.7305 50.7266 29.3137 48.6505 30.0941 46.2458C30.9081 43.7441 30.8558 41.063 30.8073 38.4679C30.755 35.6973 30.7028 33.0761 31.7632 31.6235" stroke="#9EEDD2" stroke-width="1.5" stroke-linecap="round" stroke-linejoin="round"></path><path d="M38.0367 89.5489C35.3668 88.7424 32.8427 87.9806 31.7635 86.4983C30.7068 85.042 30.7553 82.4245 30.8076 79.6539C30.8562 77.0587 30.9084 74.3777 30.0981 71.876" stroke="#9EEDD2" stroke-width="1.5" stroke-linecap="round" stroke-linejoin="round"></path><g style="mix-blend-mode:multiply" opacity="0.47"><path d="M27.7932 75.9982C55.9477 97.6441 83.7698 97.6441 111.252 75.9982C111.319 74.8706 111.472 73.7915 111.794 72.7982C113.28 68.2203 119.183 64.1391 119.183 59.0646C119.183 53.9901 113.28 49.9089 111.794 45.3273C110.251 40.5814 112.578 33.8191 109.703 29.8686C106.797 25.877 99.6319 26.0151 95.6402 23.1101C91.6897 20.2349 89.6173 13.3606 84.8713 11.8185C80.2934 10.3324 74.5953 14.6265 69.5208 14.6265C64.4463 14.6265 58.7519 10.3287 54.1703 11.8185C49.4243 13.3606 47.3519 20.2349 43.4013 23.1101C39.4097 26.0151 32.2441 25.877 29.3391 29.8686C26.4639 33.8191 28.7864 40.5814 27.248 45.3273C25.7619 49.9052 19.8584 53.9864 19.8584 59.0609C19.8584 64.1354 25.7619 68.2166 27.248 72.7982C27.5692 73.7915 27.7222 74.8743 27.7894 75.9982H27.7932Z" fill="#02CCAA"></path></g><path d="M102.242 43.6208C103 42.5678 103.452 41.2796 103.452 39.8831C103.452 36.7839 101.252 34.1963 98.3287 33.5988C98.9784 32.1986 99.3443 30.634 99.3443 28.9873C99.3443 22.9346 94.4379 18.0244 88.3813 18.0244C86.8317 18.0244 85.3605 18.3455 84.0275 18.9243C81.7945 13.1328 76.1786 9.02173 69.5992 9.02173C63.0199 9.02173 57.3666 13.159 55.1486 18.9803C53.782 18.3679 52.266 18.0206 50.6678 18.0206C44.615 18.0206 39.7048 22.9271 39.7048 28.9836C39.7048 30.593 40.0557 32.1164 40.6756 33.4943C37.4083 33.793 34.8505 36.5337 34.8505 39.8794C34.8505 41.2759 35.3024 42.5641 36.0604 43.6171C34.4286 44.7784 33.3569 46.6827 33.3569 48.8409C33.3569 52.3845 36.2284 55.2559 39.7719 55.2559C43.3155 55.2559 46.0563 52.504 46.1758 49.065C47.4976 49.7184 49.0286 50.0956 50.6678 50.0956C55.6154 50.0956 59.6294 46.6678 59.6294 42.4409C59.6294 40.5702 58.8416 38.8563 57.5347 37.527C58.1358 37.0453 58.6847 36.5001 59.1702 35.9027C61.9184 38.4157 65.5777 39.9503 69.5955 39.9503C73.6133 39.9503 77.198 38.4493 79.9387 35.9811C80.4391 36.586 81.0067 37.1312 81.6228 37.6166C79.5952 39.0206 78.2995 41.1639 78.2995 43.5648C78.2995 47.7917 82.3136 51.2195 87.2611 51.2195C89.0945 51.2195 90.7972 50.749 92.2162 49.9425C92.7389 52.9595 95.3639 55.2597 98.5304 55.2597C102.074 55.2597 104.945 52.3882 104.945 48.8447C104.945 46.6864 103.877 44.7821 102.242 43.6208Z" fill="#FFD000"></path><g style="mix-blend-mode:multiply" opacity="0.65"><path d="M49.0659 39.8306C46.1608 39.8306 41.5157 36.8435 40.6756 33.4978C37.4083 33.7965 34.8505 36.5373 34.8505 39.8829C34.8505 41.2794 35.3023 42.5676 36.0604 43.6206C34.4286 44.7819 33.3569 46.6862 33.3569 48.8445C33.3569 52.388 36.2284 55.2595 39.7719 55.2595C43.3155 55.2595 46.0563 52.5075 46.1758 49.0685C46.7919 49.3747 47.4528 49.6137 48.1473 49.7892L50.1077 46.1784C50.1077 46.1784 51.9747 39.8306 49.0696 39.8306H49.0659Z" fill="#FFD000"></path></g><g style="mix-blend-mode:multiply" opacity="0.65"><path d="M104.941 48.8446C104.941 46.6864 103.873 44.782 102.238 43.6208C102.996 42.5678 103.448 41.2796 103.448 39.8831C103.448 36.81 101.282 34.241 98.3956 33.6174C97.477 36.9145 92.9103 39.8345 90.0388 39.8345C87.1337 39.8345 89.0007 46.1823 89.0007 46.1823L91.2935 50.4017C91.6109 50.2635 91.9208 50.1142 92.2158 49.9461C92.7385 52.9632 95.3635 55.2633 98.53 55.2633C102.074 55.2633 104.945 52.3919 104.945 48.8483L104.941 48.8446Z" fill="#FFD000"></path></g><path d="M84.2549 23.1285C85.9128 21.8627 88.1159 21.34 90.2965 21.8888C94.094 22.8485 96.3979 26.702 95.442 30.5032" stroke="#F7FFD1" stroke-width="1.5" stroke-linecap="round" stroke-linejoin="round"></path><path d="M43.7184 30.6414C43.0948 28.6512 43.3525 26.4033 44.6108 24.5401C46.8064 21.2952 51.2163 20.4439 54.4611 22.6395" stroke="#F7FFD1" stroke-width="1.5" stroke-linecap="round" stroke-linejoin="round"></path><path d="M62.9263 35.4545C65.5588 37.4597 69.0463 38.2924 72.504 37.4223C78.527 35.9026 82.1789 29.7901 80.6628 23.7634" stroke="#F7FFD1" stroke-width="1.5" stroke-linecap="round" stroke-linejoin="round"></path><path d="M35.3586 63.5416C39.1738 63.5416 42.2665 60.7832 42.2665 57.3806C42.2665 53.9779 39.1738 51.2195 35.3586 51.2195C31.5435 51.2195 28.4507 53.9779 28.4507 57.3806C28.4507 60.7832 31.5435 63.5416 35.3586 63.5416Z" fill="#FFE7ED"></path><g style="mix-blend-mode:multiply"><path d="M35.3583 51.2197C33.7415 51.2197 32.2553 51.7201 31.0791 52.5528C34.4024 55.4653 35.4666 60.2821 35.7952 63.5232C39.406 63.3216 42.27 60.6518 42.27 57.3808C42.27 54.1098 39.1782 51.2197 35.3621 51.2197H35.3583Z" fill="#FFE7ED"></path></g><path d="M103.691 63.5419C107.506 63.5419 110.599 60.7835 110.599 57.3808C110.599 53.9781 107.506 51.2197 103.691 51.2197C99.876 51.2197 96.7832 53.9781 96.7832 57.3808C96.7832 60.7835 99.876 63.5419 103.691 63.5419Z" fill="#FFE7ED"></path><g style="mix-blend-mode:multiply"><path d="M103.691 51.2197C105.308 51.2197 106.794 51.7201 107.97 52.5528C104.647 55.4653 103.583 60.2821 103.254 63.5232C99.6433 63.3216 96.7793 60.6518 96.7793 57.3808C96.7793 54.1098 99.8711 51.2197 103.687 51.2197H103.691Z" fill="#FFE7ED"></path></g><path d="M89.9799 39.8308C89.4572 39.9055 88.9232 39.9466 88.3818 39.9466C84.9875 39.9466 81.9518 38.4007 79.9392 35.9773C77.1984 38.4455 73.5726 39.9466 69.5959 39.9466C65.6192 39.9466 61.9188 38.4119 59.1706 35.8989C57.1617 38.3671 54.0998 39.9466 50.6682 39.9466C50.1231 39.9466 49.5891 39.9055 49.0701 39.8308C42.2256 45.1741 37.8755 53.1387 37.8755 62.048C37.8755 78.134 52.0461 91.1731 69.525 91.1731C87.0039 91.1731 101.175 78.134 101.175 62.048C101.175 53.1425 96.8244 45.1741 89.9799 39.8308Z" fill="#FFE7ED"></path><path d="M56.6428 58.6874C59.3237 58.6874 61.497 56.5141 61.497 53.8332C61.497 51.1523 59.3237 48.979 56.6428 48.979C53.9619 48.979 51.7886 51.1523 51.7886 53.8332C51.7886 56.5141 53.9619 58.6874 56.6428 58.6874Z" fill="#41576A"></path><path d="M55.3357 53.0864C56.0575 53.0864 56.6426 52.5013 56.6426 51.7795C56.6426 51.0578 56.0575 50.4727 55.3357 50.4727C54.6139 50.4727 54.0288 51.0578 54.0288 51.7795C54.0288 52.5013 54.6139 53.0864 55.3357 53.0864Z" fill="white"></path><path d="M82.4075 58.6874C85.0884 58.6874 87.2617 56.5141 87.2617 53.8332C87.2617 51.1523 85.0884 48.979 82.4075 48.979C79.7265 48.979 77.5532 51.1523 77.5532 53.8332C77.5532 56.5141 79.7265 58.6874 82.4075 58.6874Z" fill="#41576A"></path><path d="M81.1004 53.0864C81.8222 53.0864 82.4073 52.5013 82.4073 51.7795C82.4073 51.0578 81.8222 50.4727 81.1004 50.4727C80.3786 50.4727 79.7935 51.0578 79.7935 51.7795C79.7935 52.5013 80.3786 53.0864 81.1004 53.0864Z" fill="white"></path><path d="M48.0543 68.3957C50.9414 68.3957 53.2819 66.8911 53.2819 65.0351C53.2819 63.1791 50.9414 61.6746 48.0543 61.6746C45.1671 61.6746 42.8267 63.1791 42.8267 65.0351C42.8267 66.8911 45.1671 68.3957 48.0543 68.3957Z" fill="#FFB5C9"></path><path d="M90.9952 68.3957C93.8823 68.3957 96.2228 66.8911 96.2228 65.0351C96.2228 63.1791 93.8823 61.6746 90.9952 61.6746C88.1081 61.6746 85.7676 63.1791 85.7676 65.0351C85.7676 66.8911 88.1081 68.3957 90.9952 68.3957Z" fill="#FFB5C9"></path><path d="M59.1631 68.0222C59.1631 73.2498 63.8568 77.7306 69.525 77.5103C75.1933 77.7306 79.887 73.2498 79.887 68.0222C73.0724 71.0094 65.6043 71.0094 59.1631 68.0222Z" fill="#411126"></path><path d="M69.525 72.8765C66.6797 72.8765 64.1667 73.7876 62.647 75.1841C64.4841 76.7075 66.9 77.6149 69.525 77.5103C72.1501 77.6112 74.5659 76.7038 76.4031 75.1841C74.8833 73.7913 72.3704 72.8765 69.525 72.8765Z" fill="#CC363E"></path><path d="M74.1929 61.6746C74.1929 63.2204 72.1019 64.475 69.5254 64.475C66.9489 64.475 64.8579 63.2204 64.8579 61.6746" stroke="#FFB5C9" stroke-width="2" stroke-linecap="round" stroke-linejoin="round"></path></svg>