<svg xmlns="http://www.w3.org/2000/svg" viewBox="0 0 550 148" fill="currentColor"><path d="M362.249 83.0438C368.181 83.0438 372.99 78.3287 372.99 72.5124C372.99 66.6961 368.181 61.9811 362.249 61.9811C356.317 61.9811 351.509 66.6961 351.509 72.5124C351.509 78.3287 356.317 83.0438 362.249 83.0438Z" fill="currentColor"></path><path d="M233.341 21.1635C239.272 21.1635 244.081 16.4485 244.081 10.6322C244.081 4.81588 239.272 0.10083 233.341 0.10083C227.409 0.10083 222.6 4.81588 222.6 10.6322C222.6 16.4485 227.409 21.1635 233.341 21.1635Z" fill="currentColor"></path><path d="M69.2412 114.638C78.1325 114.638 85.3403 107.56 85.3403 98.8294C85.3403 90.0986 78.1325 83.0209 69.2412 83.0209C60.3499 83.0209 53.1421 90.0986 53.1421 98.8294C53.1421 107.56 60.3499 114.638 69.2412 114.638Z" fill="currentColor"></path><path d="M179.313 98.8523C194.136 98.8523 206.153 87.0596 206.153 72.5125C206.153 57.9654 194.136 46.1726 179.313 46.1726C164.49 46.1726 152.474 57.9654 152.474 72.5125C152.474 87.0596 164.49 98.8523 179.313 98.8523Z" fill="currentColor"></path><path d="M182.654 52.0912C188.708 52.7566 193.394 54.7298 195.413 60.6493" stroke="white" stroke-width="2.43" stroke-linecap="round"></path><path d="M233.016 4.04724C236.588 4.04724 238.815 5.35506 239.72 7.99363" stroke="white" stroke-width="2.43" stroke-linecap="round"></path><path d="M363.224 66.5699C366.796 66.5699 368.605 68.1072 368.605 71.1588" stroke="white" stroke-width="2.43" stroke-linecap="round"></path><path d="M72.5817 89.6058C74.4975 89.9887 76.242 90.9601 77.5666 92.3816C78.8913 93.803 79.7284 95.6019 79.9585 97.5216" stroke="white" stroke-width="2.43" stroke-linecap="round"></path></svg>