<svg xmlns="http://www.w3.org/2000/svg" viewBox="0 0 390 390" fill="none"><path d="M183.089 46.9558L178.998 52.4842L329.563 163.066L333.654 157.538L183.089 46.9558Z" fill="#D0A100"></path><path d="M162.448 110.661C165.381 110.036 168.062 108.559 170.152 106.416C172.242 104.273 173.648 101.561 174.19 98.6227C174.732 95.6842 174.388 92.6514 173.199 89.9081C172.011 87.1648 170.033 84.8342 167.514 83.2111C164.996 81.588 162.051 80.7454 159.052 80.7898C156.053 80.8341 153.135 81.7636 150.666 83.4605C148.197 85.1574 146.289 87.5455 145.183 90.3228C144.078 93.1 143.823 96.1416 144.453 99.0627C144.869 101.002 145.665 102.84 146.795 104.472C147.925 106.105 149.366 107.5 151.037 108.577C152.709 109.654 154.577 110.392 156.534 110.75C158.492 111.108 160.502 111.077 162.448 110.661Z" fill="#F7EFD0"></path><path d="M123.812 78.4166L193.631 110.205C194.154 110.444 194.732 110.537 195.304 110.476C195.879 110.416 196.426 110.205 196.892 109.865C197.357 109.524 197.722 109.066 197.951 108.538C198.176 108.013 198.255 107.437 198.18 106.871L193.674 68.0438L156.783 52.1995L123.455 73.1447C122.998 73.4372 122.628 73.8453 122.382 74.3273C122.137 74.807 122.029 75.3439 122.067 75.8804C122.098 76.421 122.276 76.943 122.582 77.3907C122.894 77.8351 123.318 78.1891 123.812 78.4166Z" fill="#FFD000"></path><path d="M155.582 53.3249L173.548 33.7618C174.33 32.9145 175.362 32.3356 176.495 32.1079C177.628 31.8801 178.804 32.0151 179.856 32.4936L194.002 39.0479C194.949 39.4923 195.734 40.2196 196.247 41.1287C196.759 42.0378 196.975 43.0836 196.863 44.1204L193.874 71.1924L155.582 53.3249Z" fill="#E8B721"></path><path d="M280.843 358C309.566 358 332.839 353.327 332.839 347.57C332.839 341.814 309.566 337.14 280.843 337.14C252.12 337.14 228.848 341.814 228.848 347.57C228.848 353.327 252.12 358 280.843 358Z" fill="#FFD000"></path><path d="M284.634 125.436H277.482V346.957H284.634V125.436Z" fill="#D0A100"></path><path d="M76.4368 243.984C71.1014 236.375 64.7075 227.256 67.5683 217.482C71.2016 205.214 84.0323 207.508 93.9021 208.69C109.336 210.642 125.128 203.689 131.708 189.127C132.366 187.702 130.206 186.391 129.534 187.859C127.517 192.231 124.544 196.097 120.831 199.174C117.118 202.251 112.76 204.461 108.078 205.641C98.0647 208.234 88.3808 203.732 78.3965 205.228C70.6436 206.396 65.5228 212.352 64.5215 219.975C63.3343 229.479 69.0702 237.843 74.2626 245.252C75.178 246.548 77.3523 245.252 76.4225 243.984H76.4368Z" fill="#E1FCFF"></path><path d="M199.896 356.19L204.717 356.304C204.917 356.321 205.119 356.287 205.303 356.204C205.498 356.138 205.671 356.02 205.803 355.862C205.944 355.716 206.051 355.541 206.118 355.35C206.161 355.152 206.161 354.948 206.118 354.751L198.48 305.893C198.451 305.707 198.377 305.532 198.265 305.38C198.164 305.223 198.033 305.088 197.879 304.981C197.721 304.881 197.547 304.809 197.364 304.768C197.181 304.725 196.99 304.725 196.806 304.768L184.834 307.133C184.643 307.161 184.461 307.234 184.304 307.346C184.144 307.449 184.007 307.585 183.904 307.745C183.8 307.909 183.736 308.094 183.718 308.287C183.675 308.47 183.675 308.66 183.718 308.843L198.508 355.221C198.606 355.493 198.78 355.73 199.009 355.905C199.264 356.096 199.577 356.196 199.896 356.19Z" fill="#D0A100"></path><path d="M88.7939 356.19L83.9734 356.304C83.7726 356.321 83.5709 356.287 83.3871 356.204C83.192 356.138 83.0189 356.02 82.8865 355.862C82.7461 355.716 82.6387 355.541 82.5716 355.35C82.5291 355.152 82.5291 354.948 82.5716 354.751L90.2102 305.893C90.2392 305.707 90.3127 305.532 90.4246 305.38C90.5259 305.223 90.6571 305.088 90.8108 304.981C90.9689 304.881 91.1431 304.809 91.3258 304.768C91.5093 304.725 91.7001 304.725 91.8836 304.768L103.856 307.133C104.047 307.161 104.229 307.234 104.385 307.346C104.546 307.449 104.683 307.585 104.786 307.745C104.89 307.909 104.954 308.094 104.972 308.287C105.015 308.47 105.015 308.66 104.972 308.843L90.1815 355.221C90.0842 355.493 89.9104 355.73 89.6809 355.905C89.4255 356.096 89.1132 356.196 88.7939 356.19Z" fill="#D0A100"></path><path d="M218.52 321.082L223.712 321.21C223.928 321.22 224.143 321.181 224.342 321.096C224.548 321.021 224.734 320.899 224.885 320.74C225.03 320.578 225.142 320.389 225.214 320.184C225.257 319.973 225.257 319.755 225.214 319.543L216.989 267.009C216.958 266.804 216.88 266.609 216.761 266.439C216.648 266.27 216.502 266.124 216.332 266.012C216.161 265.893 215.965 265.815 215.759 265.784C215.561 265.741 215.356 265.741 215.158 265.784L202.285 268.334C202.081 268.364 201.886 268.436 201.713 268.548C201.546 268.666 201.405 268.816 201.298 268.99C201.184 269.166 201.111 269.366 201.083 269.574C201.039 269.776 201.039 269.985 201.083 270.186L216.989 320.056C217.093 320.359 217.288 320.623 217.547 320.811C217.801 321.007 218.113 321.113 218.434 321.11L218.52 321.082Z" fill="#D0A100"></path><path d="M131.636 317.035L126.487 316.579C126.268 316.565 126.054 316.506 125.858 316.409C125.67 316.298 125.505 316.153 125.371 315.981C125.242 315.803 125.155 315.599 125.114 315.383C125.065 315.172 125.065 314.952 125.114 314.741L139.761 263.547C139.825 263.348 139.927 263.164 140.062 263.006C140.197 262.847 140.362 262.716 140.548 262.621C140.732 262.534 140.931 262.481 141.134 262.464C141.342 262.451 141.55 262.476 141.75 262.535L154.223 266.496C154.417 266.553 154.598 266.65 154.752 266.781C154.911 266.916 155.042 267.081 155.138 267.266C155.224 267.453 155.268 267.658 155.267 267.864C155.265 268.069 155.226 268.271 155.153 268.462L133.167 316.166C133.033 316.455 132.807 316.69 132.523 316.836C132.254 316.99 131.945 317.059 131.636 317.035Z" fill="#D0A100"></path><path d="M251.219 245.494C253.479 228.154 257.084 196.75 255.325 179.338C252.993 155.714 251.148 142.905 235.141 132.247C219.135 121.589 154.952 125.308 139.046 135.767C123.14 146.225 126.716 165.845 122.339 182.787C117.962 199.728 113.757 204.943 101.555 211.483C88.5383 218.479 81.5292 213.663 70.3004 222.397C58.4852 231.573 54.7661 271.597 62.2901 283.851C69.1561 295.05 78.2966 300.949 90.8127 303.97C104.988 307.446 123.14 307.418 140.706 308.643C176.695 311.137 209.365 314.599 232.052 296.489C246.957 284.606 248.959 262.421 251.262 244.938" fill="#02CCAA"></path><path d="M239.976 135.952C238.059 137.505 223.398 134.527 217.576 161.171C211.754 187.816 225.429 233.083 197.078 236.489C175.865 239.039 168.742 245.223 170.444 268.918C172.075 291.716 172.461 306.221 183.775 308.942C195.09 311.664 219.207 308.173 232.052 296.446C244.897 284.72 248.659 271.996 252.521 238.512C256.383 205.028 258.128 167.954 253.694 155.871C250.717 148.27 246.023 141.455 239.976 135.952Z" fill="#02A88C"></path><path d="M135.155 140.469C136.1 141.153 126.573 208.519 133.224 220.531C134.54 222.896 136.929 226.472 144.51 227.057C146.184 227.185 180.514 231.659 179.327 232.898C178.139 234.138 122.925 237.173 114.758 240.194C104.158 244.098 101.569 249.113 98.1648 256.75C92.8722 268.634 95.5328 304.867 95.5328 304.867C95.5328 304.867 72.2314 305.295 63.0339 288.653C53.8363 272.011 56.6255 231.018 61.6892 224.805C66.2808 219.177 68.9702 218.322 77.7672 217.026C86.5643 215.729 101.383 214.475 108.75 205.627C116.116 196.779 120.193 173.297 123.397 158.778C126.601 144.259 135.155 140.469 135.155 140.469Z" fill="#02A88C"></path><path d="M161.275 235.691L114.2 240.707C111.878 241.002 109.532 240.382 107.661 238.979C105.791 237.577 104.545 235.502 104.187 233.198L100.468 201.851C100.364 200.704 100.485 199.547 100.825 198.446C101.347 196.795 102.351 195.337 103.709 194.258C105.067 193.179 106.718 192.529 108.449 192.39L155.524 187.389C157.848 187.087 160.198 187.704 162.07 189.108C163.942 190.511 165.187 192.59 165.537 194.898L169.285 226.245C169.396 227.387 169.274 228.541 168.927 229.636C168.573 230.73 168.009 231.746 167.268 232.628C166.526 233.51 165.612 234.233 164.582 234.754C163.552 235.276 162.427 235.585 161.275 235.663V235.691Z" fill="#FFB5C9"></path><path d="M173.619 239.851L135.113 237.714C134.41 237.701 133.718 237.541 133.081 237.244C132.444 236.962 131.871 236.555 131.394 236.049C130.918 235.542 130.548 234.946 130.306 234.294C130.063 233.644 129.951 232.951 129.977 232.257L131.651 205.84C131.775 204.445 132.444 203.154 133.514 202.245C134.584 201.337 135.97 200.883 137.372 200.982L175.879 203.119C176.578 203.135 177.265 203.291 177.902 203.577C178.538 203.864 179.11 204.275 179.584 204.786C180.07 205.287 180.445 205.884 180.685 206.538C180.93 207.189 181.042 207.882 181.014 208.576L179.341 234.993C179.217 236.388 178.548 237.679 177.478 238.588C176.408 239.496 175.022 239.95 173.619 239.851Z" fill="#FFD3E0"></path><path d="M135.356 203.618C135.356 203.49 135.27 203.347 135.213 203.219C135.123 203 135.013 202.79 134.884 202.592C135.013 202.79 135.123 203 135.213 203.219C135.27 203.347 135.313 203.504 135.356 203.618Z" fill="#BDBCC0"></path><path d="M135.914 208.505L135.613 204.829L135.914 208.505Z" fill="#BDBCC0"></path><path d="M134.068 201.552C134.255 201.738 134.427 201.938 134.583 202.15C134.427 201.938 134.255 201.738 134.068 201.552Z" fill="#BDBCC0"></path><path d="M129.091 200.326C128.881 200.385 128.676 200.456 128.476 200.54C128.676 200.456 128.881 200.385 129.091 200.326Z" fill="#BDBCC0"></path><path d="M124.356 202.25L124.17 202.321H124.342L124.356 202.25Z" fill="#BDBCC0"></path><path d="M104.33 209.189L103.3 209.488L104.33 209.189Z" fill="#BDBCC0"></path><path d="M81.4431 214.347L80.8423 214.432L81.4431 214.347Z" fill="#BDBCC0"></path><path d="M115.144 205.712L113.857 206.168L115.144 205.712Z" fill="#BDBCC0"></path><path d="M107.906 208.106L106.733 208.463L107.906 208.106Z" fill="#BDBCC0"></path><path d="M100.64 210.172L99.8672 210.371L100.64 210.172Z" fill="#BDBCC0"></path><path d="M96.9779 211.141L96.563 211.241L96.9779 211.141Z" fill="#BDBCC0"></path><path d="M77.7242 214.917L76.6514 215.059L77.7242 214.917Z" fill="#BDBCC0"></path><path d="M118.634 204.458L117.447 204.9L118.634 204.458Z" fill="#BDBCC0"></path><path d="M111.482 206.938L110.223 207.351L111.482 206.938Z" fill="#BDBCC0"></path><path d="M129.434 215.33L128.59 215.701L129.92 215.102L130.535 214.817L129.434 215.33Z" fill="#BDBCC0"></path><path d="M118.377 219.99L115.874 220.958L118.377 219.99Z" fill="#BDBCC0"></path><path d="M93.5304 227.74C92.5434 227.982 91.5565 228.196 90.5552 228.41C91.5565 228.153 92.5434 227.982 93.5304 227.74Z" fill="#BDBCC0"></path><path d="M89.6107 228.624L86.8931 229.18L89.6107 228.624Z" fill="#BDBCC0"></path><path d="M121.81 218.622L119.55 219.534L121.81 218.622Z" fill="#BDBCC0"></path><path d="M85.6487 229.407L83.1313 229.863L85.6487 229.407Z" fill="#BDBCC0"></path><path d="M125.357 217.111L123.283 218.009L125.357 217.111Z" fill="#BDBCC0"></path><path d="M97.4067 226.729L94.1167 227.57C101.332 225.835 108.435 223.665 115.387 221.073C111.21 222.611 107.033 224.008 102.828 225.247C101.011 225.817 99.1947 226.316 97.4067 226.729Z" fill="#BDBCC0"></path><path d="M77.4813 230.747L75.5073 231.018L77.4813 230.747Z" fill="#BDBCC0"></path><path d="M81.615 230.12L79.355 230.476L81.615 230.12Z" fill="#BDBCC0"></path></svg>