<svg xmlns="http://www.w3.org/2000/svg" viewBox="0 0 140 140" fill="none"><path d="M23.1427 21.9903C-7.28832 32.5557 -2.71419 81.4178 23.1427 109.093C48.9996 136.767 115.451 130.318 130.687 113.588C145.922 96.8592 136.591 73.8947 109.783 72.5731C82.9748 71.2515 63.0904 8.11903 23.1427 21.9903Z" fill="#DFF5FE"></path><path d="M96.6182 114.539H44.7153V130.968H96.6182V114.539Z" fill="#02A88C"></path><path d="M12.9762 130.968H44.7153V120.14H12.9762V130.968Z" fill="#02CCAA"></path><path d="M96.6178 130.968H128.357V124.994H96.6178V130.968Z" fill="#7EE8CC"></path><path d="M90.6439 19.6954C88.4371 19.6954 86.4357 20.5654 84.9607 21.9806C84.3409 17.1115 80.1849 13.3477 75.1477 13.3477C71.0366 13.3477 67.5117 15.8532 66.0181 19.4228C65.1219 16.7605 62.6127 14.8413 59.6516 14.8413C55.94 14.8413 52.9303 17.8508 52.9303 21.5624C52.9303 21.9769 52.9752 22.3839 53.0461 22.7797C51.9558 22.0142 50.6302 21.5624 49.1963 21.5624C45.4847 21.5624 42.4751 24.572 42.4751 28.2836C42.4751 31.9952 45.4847 35.0048 49.1963 35.0048C51.1305 35.0048 52.8706 34.1833 54.0954 32.8764C55.5292 35.2699 58.1505 36.8718 61.1452 36.8718C64.8643 36.8718 67.9747 36.9016 68.9866 33.5112C70.6744 34.8442 72.8327 33.1378 75.1477 33.1378C78.1387 33.1378 80.6143 35.2325 82.4291 33.1378C83.2506 36.8083 86.7269 36.125 90.6439 36.125C95.1807 36.125 98.8588 32.447 98.8588 27.9102C98.8588 23.3734 95.1807 19.6954 90.6439 19.6954Z" fill="#AFF2FF"></path><path d="M65.2528 12.9744C66.9026 12.9744 68.2401 11.637 68.2401 9.98719C68.2401 8.33741 66.9026 7 65.2528 7C63.603 7 62.2656 8.33741 62.2656 9.98719C62.2656 11.637 63.603 12.9744 65.2528 12.9744Z" fill="#AFF2FF"></path><g style="mix-blend-mode:multiply"><g style="mix-blend-mode:multiply"><path d="M69.5464 27.1636C68.5494 27.1636 67.6234 27.4586 66.8393 27.9552C65.8983 25.629 63.6205 23.9897 60.9582 23.9897C57.4519 23.9897 54.6104 26.8313 54.6104 30.3375C54.6104 33.8437 57.4519 36.6853 60.9582 36.6853C62.6497 36.6853 64.1806 36.0206 65.3195 34.9415C66.2194 36.3268 67.7728 37.2454 69.5464 37.2454C72.332 37.2454 74.5873 34.9901 74.5873 32.2045C74.5873 29.419 72.332 27.1636 69.5464 27.1636Z" fill="#BBEAFB"></path></g><g style="mix-blend-mode:multiply"><path d="M90.0839 35.0051C92.8679 35.0051 95.1248 32.7482 95.1248 29.9642C95.1248 27.1802 92.8679 24.9233 90.0839 24.9233C87.2999 24.9233 85.043 27.1802 85.043 29.9642C85.043 32.7482 87.2999 35.0051 90.0839 35.0051Z" fill="#BBEAFB"></path></g></g><path d="M86.1628 105.951H55.1704V114.539H86.1628V105.951Z" fill="#FFD000"></path><path d="M75.334 82.4268H65.999L60.3979 105.951H80.935L75.334 82.4268Z" fill="#FFD000"></path><path d="M29.5924 44.7134C30.7835 42.1967 37.2359 46.431 45.4283 55.1014L44.5285 48.9926C44.5285 48.9926 27.3595 33.3024 25.1116 41.7262C22.1244 52.9282 49.0093 79.4395 49.0093 79.4395L47.7658 70.982C39.1925 62.883 28.4087 47.2226 29.5924 44.7134Z" fill="#FFD000"></path><path d="M111.741 44.7134C110.549 42.1967 104.097 46.431 95.9046 55.1014L96.8045 48.9926C96.8045 48.9926 113.974 33.3024 116.221 41.7262C119.209 52.9282 92.3237 79.4395 92.3237 79.4395L93.5671 70.982C102.14 62.883 112.924 47.2226 111.741 44.7134Z" fill="#FFD000"></path><g style="mix-blend-mode:multiply" opacity="0.66"><g style="mix-blend-mode:multiply" opacity="0.66"><path d="M73.0451 85.3577C74.0234 85.2606 75.0017 85.1897 75.9763 85.1262L75.3341 82.4265H65.999L65.0244 86.5152C67.6793 86.0186 70.3491 85.6191 73.0451 85.3577Z" fill="#FFD000"></path></g><g style="mix-blend-mode:multiply" opacity="0.66"><g style="mix-blend-mode:multiply" opacity="0.66"><path d="M38.229 48.2306C40.376 50.0192 42.8106 52.3305 45.4281 55.1012L44.5283 48.9924C44.5283 48.9924 41.612 46.33 38.0273 43.7834C38.102 45.2658 38.1692 46.7482 38.229 48.2306Z" fill="#FFD000"></path></g><g style="mix-blend-mode:multiply" opacity="0.66"><path d="M47.7622 70.9817C44.7152 68.1028 41.3882 64.2643 38.4159 60.4033C38.3749 62.7445 38.2703 65.082 38.0649 67.4083C43.6996 74.2041 49.0056 79.4392 49.0056 79.4392L47.7622 70.9817Z" fill="#FFD000"></path></g><g style="mix-blend-mode:multiply" opacity="0.66"><path d="M101.502 62.2034C98.9144 65.437 96.1438 68.5511 93.5711 70.982L92.3276 79.4394C92.3276 79.4394 96.8309 74.996 101.95 68.9806C101.763 66.7252 101.614 64.4624 101.506 62.2034H101.502Z" fill="#FFD000"></path></g><g style="mix-blend-mode:multiply" opacity="0.66"><path d="M101.326 49.7727C101.36 48.2231 101.42 46.6697 101.491 45.1201C98.7836 47.1813 96.8008 48.9923 96.8008 48.9923L95.9009 55.1011C97.8202 53.0698 99.6424 51.2887 101.323 49.7727H101.326Z" fill="#FFD000"></path></g></g></g><path d="M93.2577 82.4264H48.0761L42.4751 36.8718H98.8588L93.2577 82.4264Z" fill="#FFD000"></path><g style="mix-blend-mode:screen" opacity="0.49"><path d="M64.1021 82.4264H93.2572L98.8583 36.8718H82.2008C80.5242 55.5604 70.8606 72.5762 64.1021 82.4264Z" fill="#FFD000"></path></g><path d="M98.8586 30.1506H42.4749C40.3096 30.1506 38.5542 31.906 38.5542 34.0713C38.5542 36.2367 40.3096 37.992 42.4749 37.992H98.8586C101.024 37.992 102.779 36.2367 102.779 34.0713C102.779 31.906 101.024 30.1506 98.8586 30.1506Z" fill="#C29F26"></path><path d="M69.5913 18.4561C70.8907 16.8244 72.8959 15.7751 75.1438 15.7751C79.0608 15.7751 82.2384 18.9528 82.2384 22.8697" stroke="white" stroke-width="1.5" stroke-linecap="round" stroke-linejoin="round"></path><path d="M59.8007 16.9326C57.1421 16.9326 54.9839 19.0909 54.9839 21.7495" stroke="white" stroke-width="1.5" stroke-linecap="round" stroke-linejoin="round"></path><g style="mix-blend-mode:screen" opacity="0.49"><path d="M76.4691 87.1987C77.3877 98.6695 69.998 105.951 69.998 105.951H78.1158L79.3368 114.539H86.1626V105.951H80.935L76.4691 87.1987Z" fill="#FFD000"></path></g></svg>