<svg xmlns="http://www.w3.org/2000/svg" viewBox="0 0 137 54" fill="none"><path d="M137 42C137 48.6274 131.627 54 125 54H12C5.37259 54 5.00511e-06 48.6274 1.11792e-05 42L3.91271e-05 12.0001C4.53012e-05 5.3727 5.37262 0.000120852 12 0.000114767L125 1.10177e-05C131.627 4.93278e-06 137 5.37259 137 12V42Z" fill="white"></path><path d="M47.6318 17.2719C47.6318 18.0316 47.4367 18.6962 46.949 19.171C46.3638 19.7407 45.681 20.0256 44.8031 20.0256C43.9252 20.0256 43.2424 19.7407 42.6572 19.171C42.0719 18.6013 41.7793 17.9366 41.7793 17.082C41.7793 16.2274 42.0719 15.5627 42.6572 14.993C43.2424 14.4233 43.9252 14.1384 44.8031 14.1384C45.1933 14.1384 45.5834 14.2334 45.9736 14.4233C46.3638 14.6132 46.6564 14.8031 46.8515 15.088L46.3638 15.5627C45.9736 15.088 45.4859 14.8981 44.8031 14.8981C44.2178 14.8981 43.6326 15.088 43.2424 15.5627C42.7547 15.9426 42.5596 16.5123 42.5596 17.177C42.5596 17.8417 42.7547 18.4114 43.2424 18.7912C43.7301 19.171 44.2178 19.4559 44.8031 19.4559C45.4859 19.4559 45.9736 19.266 46.4613 18.7912C46.7539 18.5063 46.949 18.1265 46.949 17.6517H44.8031V16.8921H47.6318V17.2719ZM52.1187 14.8981H49.4851V16.7022H51.9236V17.3669H49.4851V19.171H52.1187V19.9307H48.7048V14.2334H52.1187V14.8981ZM55.3376 19.9307H54.5573V14.8981H52.899V14.2334H56.9958V14.8981H55.3376V19.9307ZM59.8245 19.9307V14.2334H60.6048V19.9307H59.8245ZM63.9212 19.9307H63.1409V14.8981H61.4827V14.2334H65.4819V14.8981H63.8237V19.9307H63.9212ZM73.1877 19.171C72.6025 19.7407 71.9197 20.0256 71.0418 20.0256C70.1639 20.0256 69.4811 19.7407 68.8959 19.171C68.3106 18.6013 68.018 17.9366 68.018 17.082C68.018 16.2274 68.3106 15.5627 68.8959 14.993C69.4811 14.4233 70.1639 14.1384 71.0418 14.1384C71.9197 14.1384 72.6025 14.4233 73.1877 14.993C73.773 15.5627 74.0656 16.2274 74.0656 17.082C74.0656 17.9366 73.773 18.6013 73.1877 19.171ZM69.4811 18.6962C69.8713 19.0761 70.4565 19.3609 71.0418 19.3609C71.627 19.3609 72.2123 19.171 72.6025 18.6962C72.9926 18.3164 73.2852 17.7467 73.2852 17.082C73.2852 16.4173 73.0902 15.8476 72.6025 15.4678C72.2123 15.088 71.627 14.8031 71.0418 14.8031C70.4565 14.8031 69.8713 14.993 69.4811 15.4678C69.091 15.8476 68.7983 16.4173 68.7983 17.082C68.7983 17.7467 68.9934 18.3164 69.4811 18.6962ZM75.1385 19.9307V14.2334H76.0164L78.8451 18.6962V14.2334H79.6255V19.9307H78.8451L75.8213 15.2779V19.9307H75.1385Z" fill="#323748"></path><path d="M69.1574 28.9086C66.7238 28.9086 64.7972 30.7001 64.7972 33.1884C64.7972 35.5771 66.7238 37.4682 69.1574 37.4682C71.591 37.4682 73.5176 35.6766 73.5176 33.1884C73.5176 30.6006 71.591 28.9086 69.1574 28.9086ZM69.1574 35.6766C67.8392 35.6766 66.7238 34.5818 66.7238 33.0889C66.7238 31.5959 67.8392 30.5011 69.1574 30.5011C70.4756 30.5011 71.591 31.4964 71.591 33.0889C71.591 34.5818 70.4756 35.6766 69.1574 35.6766ZM59.7271 28.9086C57.2935 28.9086 55.3669 30.7001 55.3669 33.1884C55.3669 35.5771 57.2935 37.4682 59.7271 37.4682C62.1607 37.4682 64.0874 35.6766 64.0874 33.1884C64.0874 30.6006 62.1607 28.9086 59.7271 28.9086ZM59.7271 35.6766C58.4089 35.6766 57.2935 34.5818 57.2935 33.0889C57.2935 31.5959 58.4089 30.5011 59.7271 30.5011C61.0453 30.5011 62.1608 31.4964 62.1608 33.0889C62.1608 34.5818 61.0453 35.6766 59.7271 35.6766ZM48.4717 30.2025V31.994H52.8319C52.7305 32.9893 52.3249 33.7856 51.8179 34.2832C51.2095 34.8804 50.1955 35.5771 48.4717 35.5771C45.7339 35.5771 43.7059 33.487 43.7059 30.7997C43.7059 28.1124 45.8353 26.0222 48.4717 26.0222C49.8913 26.0222 51.0067 26.6194 51.8179 27.3161L53.1361 26.0222C52.0207 25.0269 50.6011 24.2307 48.5731 24.2307C44.9227 24.2307 41.7793 27.2166 41.7793 30.7997C41.7793 34.3827 44.9227 37.3686 48.5731 37.3686C50.6011 37.3686 52.0207 36.7715 53.2375 35.4776C54.4543 34.2832 54.8599 32.5912 54.8599 31.2973C54.8599 30.8992 54.8599 30.5011 54.7585 30.2025H48.4717ZM94.5074 31.5959C94.1018 30.6006 93.0878 28.9086 90.857 28.9086C88.6262 28.9086 86.801 30.6006 86.801 33.1884C86.801 35.5771 88.6262 37.4682 91.0598 37.4682C92.9864 37.4682 94.2032 36.2738 94.6088 35.5771L93.1892 34.5818C92.6822 35.2785 92.0738 35.7762 91.0598 35.7762C90.0458 35.7762 89.4374 35.378 88.9304 34.4823L94.7102 32.0936L94.5074 31.5959ZM88.6262 32.9893C88.6262 31.3968 89.9444 30.5011 90.857 30.5011C91.5668 30.5011 92.2766 30.8992 92.4794 31.3968L88.6262 32.9893ZM83.8604 37.07H85.787V24.6288H83.8604V37.07ZM80.8184 29.8044C80.3114 29.3067 79.5002 28.8091 78.4862 28.8091C76.3568 28.8091 74.3288 30.7001 74.3288 33.0889C74.3288 35.4776 76.2554 37.2691 78.4862 37.2691C79.5002 37.2691 80.3114 36.7715 80.717 36.2738H80.8184V36.871C80.8184 38.4635 79.9058 39.3592 78.4862 39.3592C77.3708 39.3592 76.5596 38.563 76.3568 37.8663L74.7344 38.563C75.2414 39.6578 76.4582 41.0512 78.5876 41.0512C80.8184 41.0512 82.6436 39.7573 82.6436 36.6719V29.1077H80.8184V29.8044ZM78.5876 35.6766C77.2694 35.6766 76.154 34.5818 76.154 33.0889C76.154 31.5959 77.2694 30.5011 78.5876 30.5011C79.9058 30.5011 80.9198 31.5959 80.9198 33.0889C80.9198 34.5818 79.9058 35.6766 78.5876 35.6766ZM103.329 24.6288H98.7662V37.07H100.693V32.3921H103.329C105.459 32.3921 107.487 30.8992 107.487 28.5105C107.487 26.1218 105.459 24.6288 103.329 24.6288ZM103.431 30.6006H100.693V26.3208H103.431C104.85 26.3208 105.661 27.5152 105.661 28.411C105.56 29.5058 104.749 30.6006 103.431 30.6006ZM115.092 28.8091C113.672 28.8091 112.252 29.4063 111.745 30.7001L113.469 31.3968C113.875 30.7001 114.483 30.5011 115.193 30.5011C116.207 30.5011 117.12 31.0983 117.221 32.0936V32.1931C116.917 31.994 116.106 31.6954 115.294 31.6954C113.469 31.6954 111.644 32.6907 111.644 34.4823C111.644 36.1743 113.165 37.2691 114.787 37.2691C116.106 37.2691 116.714 36.6719 117.221 36.0747H117.322V37.07H119.148V32.2926C118.945 30.103 117.221 28.8091 115.092 28.8091ZM114.889 35.6766C114.28 35.6766 113.368 35.378 113.368 34.5818C113.368 33.5865 114.483 33.2879 115.396 33.2879C116.207 33.2879 116.613 33.487 117.12 33.686C116.917 34.8804 115.903 35.6766 114.889 35.6766ZM125.536 29.1077L123.407 34.4823H123.305L121.074 29.1077H119.046L122.393 36.6719L120.466 40.8522H122.393L127.564 29.1077H125.536ZM108.501 37.07H110.427V24.6288H108.501V37.07Z" fill="#323748"></path><path d="M12.2775 15.8308C12.0093 16.0939 11.9199 16.5323 11.9199 17.0584V36.4369C11.9199 36.963 12.0987 37.4014 12.3669 37.6645L12.4564 37.7521L23.5426 26.8792V26.7038L12.2775 15.8308Z" fill="url(#paint0_linear_1469_2698)"></path><path d="M27.1182 30.5609L23.4526 26.9658V26.7028L27.1182 23.1077L27.2077 23.1954L31.5885 25.6505C32.8402 26.352 32.8402 27.4919 31.5885 28.1934L27.1182 30.5609Z" fill="url(#paint1_linear_1469_2698)"></path><path d="M27.2085 30.4733L23.4535 26.7905L12.2778 37.7512C12.7249 38.1896 13.3507 38.1896 14.1553 37.8389L27.2085 30.4733Z" fill="url(#paint2_linear_1469_2698)"></path><path d="M27.2085 23.1079L14.1553 15.83C13.3507 15.3916 12.7249 15.4793 12.2778 15.9177L23.4535 26.7906L27.2085 23.1079Z" fill="url(#paint3_linear_1469_2698)"></path><path opacity="0.2" d="M27.1191 30.3862L14.1553 37.5764C13.4401 38.0148 12.8143 37.9271 12.3672 37.5764L12.2778 37.6641L12.3672 37.7518C12.8143 38.1025 13.4401 38.1902 14.1553 37.7518L27.1191 30.3862Z" fill="black"></path><path opacity="0.2" d="M12.2775 37.5758C12.0093 37.3128 11.9199 36.8744 11.9199 36.3482V36.4359C11.9199 36.962 12.0987 37.4005 12.3669 37.6635V37.5758H12.2775ZM31.5891 27.9304L27.1188 30.3856L27.2082 30.4733L31.5891 28.0181C32.2149 27.6674 32.4831 27.229 32.4831 26.7905C32.4831 27.229 32.1255 27.5797 31.5891 27.9304Z" fill="black"></path><path opacity="0.2" d="M14.1551 15.9171L31.5891 25.6501C32.1255 26.0009 32.4831 26.3516 32.4831 26.79C32.4831 26.3516 32.2149 25.9132 31.5891 25.5624L14.1551 15.8294C12.9034 15.1279 11.9199 15.654 11.9199 17.057V17.1447C11.9199 15.8294 12.9034 15.2156 14.1551 15.9171Z" fill="white"></path><defs><linearGradient id="paint0_linear_1469_2698" x1="22.4697" y1="16.8918" x2="7.75628" y2="31.893" gradientUnits="userSpaceOnUse"><stop stop-color="#00A0FF"></stop><stop offset="0.007" stop-color="#00A1FF"></stop><stop offset="0.26" stop-color="#00BEFF"></stop><stop offset="0.512" stop-color="#00D2FF"></stop><stop offset="0.76" stop-color="#00DFFF"></stop><stop offset="1" stop-color="#00E3FF"></stop></linearGradient><linearGradient id="paint1_linear_1469_2698" x1="33.2282" y1="26.7913" x2="11.5948" y2="26.7913" gradientUnits="userSpaceOnUse"><stop stop-color="#FFE000"></stop><stop offset="0.409" stop-color="#FFBD00"></stop><stop offset="0.775" stop-color="#FFA500"></stop><stop offset="1" stop-color="#FF9C00"></stop></linearGradient><linearGradient id="paint2_linear_1469_2698" x1="25.1764" y1="28.8038" x2="5.22465" y2="49.1468" gradientUnits="userSpaceOnUse"><stop stop-color="#FF3A44"></stop><stop offset="1" stop-color="#C31162"></stop></linearGradient><linearGradient id="paint3_linear_1469_2698" x1="9.50358" y1="9.40793" x2="18.4133" y2="18.4925" gradientUnits="userSpaceOnUse"><stop stop-color="#32A071"></stop><stop offset="0.069" stop-color="#2DA771"></stop><stop offset="0.476" stop-color="#15CF74"></stop><stop offset="0.801" stop-color="#06E775"></stop><stop offset="1" stop-color="#00F076"></stop></linearGradient></defs></svg>