<svg xmlns="http://www.w3.org/2000/svg" viewBox="0 0 390 390" fill="none"><path d="M339.68 67L199.454 67.3887C197.236 67.3887 195.11 68.2661 193.542 69.828C191.974 71.3899 191.093 73.5082 191.093 75.717L191.72 299.695C191.738 301.892 192.627 303.992 194.193 305.539C195.759 307.086 197.875 307.954 200.081 307.954L340.294 307.565C342.511 307.565 344.638 306.688 346.206 305.126C347.774 303.564 348.654 301.445 348.654 299.237L348.027 75.259C348.009 73.0646 347.122 70.9661 345.559 69.4196C343.996 67.8731 341.883 67.0036 339.68 67Z" fill="#D0A100"></path><path d="M209.111 334.924L203.537 334.508C202.519 334.424 201.725 333.619 201.906 332.814L210.825 285.953C210.891 285.763 210.995 285.588 211.131 285.44C211.261 285.287 211.423 285.163 211.605 285.079C211.79 284.997 211.988 284.95 212.19 284.94C212.39 284.937 212.588 284.97 212.775 285.037L226.432 288.688C226.634 288.717 226.829 288.788 227.003 288.896C227.174 289.01 227.32 289.156 227.435 289.326C227.548 289.495 227.628 289.683 227.672 289.881C227.714 290.083 227.714 290.291 227.672 290.492L210.616 334.147C210.479 334.425 210.254 334.649 209.975 334.785C209.697 334.932 209.378 334.981 209.069 334.924H209.111Z" fill="#D0A100"></path><path d="M332.713 335.118L338.287 334.702C339.304 334.619 340.084 333.813 339.917 333.008L331.027 286.175C330.957 285.987 330.853 285.812 330.72 285.662C330.585 285.512 330.419 285.394 330.233 285.315C330.057 285.222 329.86 285.174 329.661 285.176C329.457 285.166 329.253 285.199 329.062 285.273L315.35 288.882C315.147 288.909 314.951 288.98 314.779 289.09C314.601 289.195 314.449 289.337 314.333 289.508C314.217 289.678 314.141 289.872 314.11 290.076C314.068 290.277 314.068 290.485 314.11 290.686L331.18 334.327C331.323 334.597 331.547 334.815 331.821 334.952C332.091 335.105 332.405 335.163 332.713 335.118Z" fill="#D0A100"></path><path d="M329.285 77.3552L209.445 77.6884C207.227 77.6884 205.101 78.5658 203.533 80.1277C201.965 81.6896 201.084 83.8079 201.084 86.0167L201.641 284.718C201.641 286.927 202.522 289.045 204.09 290.607C205.658 292.169 207.785 293.046 210.002 293.046L329.842 292.699C332.06 292.699 334.186 291.822 335.754 290.26C337.322 288.698 338.203 286.58 338.203 284.371L337.646 85.6697C337.642 83.4633 336.76 81.3485 335.192 79.7896C333.624 78.2308 331.5 77.3552 329.285 77.3552Z" fill="#E8B721"></path><path d="M341.422 123.147H197.377V129.671H341.422V123.147Z" fill="#D0A100"></path><path d="M341.938 180.932H197.907V187.456H341.938V180.932Z" fill="#D0A100"></path><path d="M341.826 235.747H197.753V298.418H341.826V235.747Z" fill="#D0A100"></path><path d="M304.899 87.6128H295.646V122.786H304.899V87.6128Z" fill="#FFE7ED"></path><path d="M310.445 94.1089H304.871V122.925H310.445V94.1089Z" fill="#FFB5C9"></path><path d="M318.485 97.2319H310.556V123.064H318.485V97.2319Z" fill="#02CCAA"></path><path d="M324.074 83.8511H318.5V123.272H324.074V83.8511Z" fill="#47D9FF"></path><path d="M295.604 100.175L291.103 98.7866L283.523 122.273L288.024 123.661L295.604 100.175Z" fill="#D9F6FC"></path><path d="M330.678 91.7769H324.003V123.411H330.678V91.7769Z" fill="#02A88C"></path><path d="M337.771 100.244H330.581V123.272H337.771V100.244Z" fill="#FFE7ED"></path><path d="M234.124 181.029H243.362V145.911H234.124V181.029Z" fill="#FFE7ED"></path><path d="M228.578 181.126H234.152V152.31H228.578V181.126Z" fill="#FFB5C9"></path><path d="M220.593 181.251H228.522V155.42H220.593V181.251Z" fill="#02CCAA"></path><path d="M215.019 181.473H220.593V142.066H215.019V181.473Z" fill="#D9F6FC"></path><path d="M259.165 181.612L263.847 180.918L260.6 159.208L255.932 159.903L259.165 181.612Z" fill="#47D9FF"></path><path d="M208.274 181.598H214.963V149.964H208.274V181.598Z" fill="#02A88C"></path><path d="M201.237 181.46H208.428V158.404H201.237V181.46Z" fill="#FFE7ED"></path><path d="M243.432 181.293H250.302V139.915H243.432V181.293Z" fill="#AFF2FF"></path><path d="M250.33 181.266H255.904V152.449H250.33V181.266Z" fill="#FFB5C9"></path><path d="M270.173 200.754H261.004V235.928H270.243L270.173 200.754Z" fill="#FFE7ED"></path><path d="M275.719 207.222H270.146V236.052H275.719V207.222Z" fill="#FFB5C9"></path><path d="M283.759 210.332H275.831V236.136H283.759V210.332Z" fill="#02CCAA"></path><path d="M289.347 196.978H283.773V236.385H289.347V196.978Z" fill="#D9F6FC"></path><path d="M248.351 214.815L243.683 214.121L240.436 235.83L245.118 236.51L248.351 214.815Z" fill="#47D9FF"></path><path d="M296.022 204.876H289.333V236.51H296.022V204.876Z" fill="#02A88C"></path><path d="M303.046 213.343H295.841V236.385H303.018L303.046 213.343Z" fill="#FFE7ED"></path><path d="M260.865 194.841H254.037V236.205H260.907L260.865 194.841Z" fill="#AFF2FF"></path><path d="M254.037 207.361H248.463V236.136H254.037V207.361Z" fill="#FFB5C9"></path><path d="M299.632 213.677C301.805 214.204 303.965 214.704 306.153 215.148L303.673 214.62L302.697 214.384C301.68 214.162 300.677 213.926 299.673 213.677C299.14 213.552 298.59 213.51 298.043 213.552C298.576 213.51 299.112 213.552 299.632 213.677Z" fill="#BDBCC0"></path><path d="M295.34 214.634C294.541 215.274 293.958 216.14 293.667 217.119C293.958 216.14 294.541 215.274 295.34 214.634Z" fill="#BDBCC0"></path><path d="M346.592 219.562C338.926 219.558 331.266 219.094 323.655 218.174C331.266 219.094 338.926 219.558 346.592 219.562Z" fill="#BDBCC0"></path><path d="M110.63 289.731C96.1298 249.563 67.5033 215.994 30.0557 195.242C37.3567 193.354 44.9678 192.97 52.4231 194.112C59.8785 195.255 67.0214 197.9 73.4151 201.887C87.5065 210.789 96.8582 225.732 102.14 241.549C107.423 257.366 108.939 274.041 110.439 290.605" fill="#0AF2D1"></path><path d="M122.009 283.372C100.085 235.597 88.9557 183.612 89.4057 131.084C118.515 175.861 130.452 229.587 123.03 282.418" fill="#0AF2D1"></path><path d="M143.824 282.466C125.277 226.177 129.514 164.9 155.633 111.675C152.442 169.612 149.181 227.538 145.851 285.454" fill="#0AF2D1"></path><path d="M99.7624 283.531C94.9575 272.728 88.9515 262.495 81.857 253.026C77.9631 247.812 73.4148 242.613 67.2229 240.579C60.2809 238.29 52.3814 240.579 46.8119 245.22C41.2423 249.862 37.8272 256.745 36.0079 263.835C34.4326 270.933 33.5772 278.17 33.4546 285.438C38.0506 279.366 42.7425 273.198 48.9025 268.699C55.0625 264.201 63.0098 261.514 70.3827 263.326C75.6809 264.614 80.1652 268.016 84.49 271.275L99.4431 282.8" fill="#0AF2D1"></path><path d="M143.314 344.287L99.0445 344.112C97.7393 344.174 96.4533 343.781 95.4076 343.001C94.362 342.22 93.622 341.101 93.3154 339.836L85.049 288.665C84.5543 285.661 87.2992 283.006 90.842 283.022L151.66 283.388C155.171 283.388 157.852 286.074 157.373 289.031L149.091 340.074C148.773 341.338 148.021 342.45 146.966 343.22C145.911 343.989 144.619 344.367 143.314 344.287Z" fill="#FFE7ED"></path><path d="M113.279 295.151C113.279 295.151 118.067 312.287 119.104 316.627C119.87 320.013 126.254 344.176 126.254 344.176H134.52L155.952 313.464L156.176 295.644L113.583 295.151" fill="#FFD3E0"></path><path d="M157.5 276.648H84.5698C83.1266 276.648 81.7424 277.219 80.7218 278.236C79.7013 279.252 79.1279 280.631 79.1279 282.069V290.557C79.1322 291.992 79.7074 293.367 80.7275 294.38C81.7476 295.393 83.1293 295.962 84.5698 295.962H157.5C158.939 295.962 160.319 295.393 161.337 294.379C162.355 293.365 162.926 291.991 162.926 290.557V282.069C162.926 280.634 162.355 279.257 161.338 278.241C160.321 277.225 158.941 276.652 157.5 276.648Z" fill="#FFB5C9"></path><path d="M171.991 203.89C177.365 208.312 182.187 213.361 186.354 218.928C191.7 226.24 193.822 232.949 190.647 239.132C189.051 242.232 183.481 244.616 180.002 244.458C178.332 244.261 176.756 243.585 175.464 242.513C174.172 241.441 173.221 240.018 172.725 238.417C171.437 235.293 171.076 231.867 171.688 228.545C173.651 219.675 172.63 211.933 171.959 203.89" fill="#00C1A7"></path><path d="M239.703 184.814C230.255 204.733 236.032 210.392 229.729 222.457C226.936 227.798 221.654 230.66 215.717 231.757C209.781 232.853 201.355 228.323 199.344 222.664C198.8 220.955 198.61 219.154 198.785 217.37C198.975 215.586 199.517 213.858 200.381 212.283C202.191 208.442 204.557 204.886 207.403 201.728C216.627 192.969 227.479 188.502 239.591 184.528" fill="#00C1A7"></path><path d="M261.487 237.559C253.593 235.352 245.378 234.508 237.198 235.063C232.429 235.223 227.747 236.382 223.457 238.465C221.32 239.515 219.431 241.006 217.918 242.84C216.404 244.674 215.301 246.808 214.68 249.1C214.117 251.41 214.305 253.839 215.217 256.036C216.129 258.233 217.718 260.084 219.755 261.324C223.058 263.088 229.57 264.249 233.017 262.77C236.464 261.292 239.4 258.002 242.241 254.012C247.03 246.969 253.649 241.354 261.391 237.765" fill="#00C1A7"></path><path d="M223.106 199.9C210.79 216.866 201.718 235.948 196.344 256.189C192.195 272.467 190.806 289.19 188.875 305.818C188.716 307.121 190.742 307.105 190.934 305.818C192.865 289.365 194.253 272.833 198.402 256.729C203.713 236.645 212.717 217.716 224.957 200.901C225.723 199.82 223.936 198.803 223.186 199.868L223.106 199.9Z" fill="#3FF2DD"></path><path d="M237.628 243.631C224.676 249.533 213.355 258.48 204.641 269.702C195.926 280.925 190.078 294.088 187.598 308.059C187.375 309.347 189.37 309.919 189.577 308.6C191.996 294.889 197.729 281.971 206.281 270.962C214.834 259.953 225.949 251.183 238.666 245.411C239.863 244.823 238.825 243.043 237.628 243.631Z" fill="#3FF2DD"></path><path d="M180.385 320.49C189.298 290.129 189.904 257.946 182.141 227.273C182.106 227.139 182.04 227.013 181.949 226.908C181.867 226.803 181.763 226.716 181.646 226.654C181.533 226.588 181.408 226.545 181.279 226.526C181.141 226.503 181.001 226.503 180.864 226.526C180.737 226.562 180.618 226.621 180.513 226.701C180.41 226.786 180.324 226.888 180.257 227.003C180.193 227.122 180.15 227.251 180.13 227.385C180.097 227.515 180.097 227.652 180.13 227.782C187.789 258.091 187.183 289.888 178.374 319.886C178.35 320.023 178.35 320.163 178.374 320.299C178.393 320.428 178.436 320.553 178.502 320.665C178.566 320.787 178.659 320.89 178.773 320.967C178.875 321.055 178.995 321.12 179.124 321.158C179.256 321.181 179.391 321.181 179.523 321.158C179.659 321.141 179.789 321.098 179.907 321.029C180.025 320.961 180.128 320.87 180.21 320.76C180.293 320.658 180.353 320.539 180.385 320.411V320.49Z" fill="#3FF2DD"></path><path d="M178.741 221.376L178.885 222.25C178.959 222.514 179.135 222.737 179.375 222.871C179.614 223.005 179.897 223.039 180.161 222.966C180.419 222.881 180.636 222.704 180.768 222.469C180.901 222.233 180.941 221.957 180.879 221.694L180.72 220.82C180.687 220.691 180.627 220.571 180.544 220.467C180.462 220.363 180.359 220.278 180.241 220.216C180.005 220.077 179.724 220.037 179.459 220.104C179.196 220.183 178.973 220.359 178.837 220.597C178.71 220.836 178.676 221.113 178.741 221.376Z" fill="#3FF2DD"></path><path d="M165.209 355.367L209.478 355.192C210.786 355.256 212.075 354.862 213.122 354.078C214.168 353.294 214.906 352.169 215.207 350.9L223.489 299.729C223.984 296.741 221.239 294.07 217.696 294.102L156.878 294.467C153.367 294.467 150.686 297.138 151.181 300.111L159.448 351.138C159.753 352.406 160.499 353.526 161.553 354.3C162.607 355.074 163.902 355.451 165.209 355.367Z" fill="#FFE7ED"></path><path d="M195.259 306.247C195.259 306.247 190.471 323.383 189.434 327.739C188.668 331.109 182.284 355.271 182.284 355.271L173.986 355.192L152.569 324.48L152.33 306.66L194.908 306.088" fill="#FFD3E0"></path><path d="M151.005 307.042H223.936C225.376 307.042 226.758 306.473 227.778 305.46C228.798 304.447 229.374 303.072 229.378 301.637V293.148C229.378 292.436 229.237 291.732 228.964 291.074C228.69 290.416 228.289 289.819 227.784 289.315C227.279 288.812 226.679 288.413 226.019 288.14C225.358 287.868 224.65 287.728 223.936 287.728H151.005C150.291 287.728 149.583 287.868 148.923 288.14C148.263 288.413 147.663 288.812 147.157 289.315C146.652 289.819 146.251 290.416 145.978 291.074C145.704 291.732 145.563 292.436 145.563 293.148V301.637C145.568 303.072 146.143 304.447 147.163 305.46C148.183 306.473 149.565 307.042 151.005 307.042Z" fill="#FFB5C9"></path><path d="M154.676 317.12C158.251 315.531 162.224 307.169 162.911 303.624C163.233 301.816 163.095 299.957 162.51 298.215C161.924 296.474 160.91 294.907 159.559 293.657C157.597 291.797 154.772 290.383 154.022 287.903C153.016 284.723 155.618 281.751 158.155 279.43C160.692 277.109 163.453 274.279 162.831 271.052C161.778 265.918 152.825 264.535 152.107 259.337C151.724 256.619 153.878 254.202 155.745 252.04C157.612 249.878 159.416 247.065 158.235 244.521C156.863 241.533 152.266 240.865 150.383 238.163C148.787 235.699 149.777 232.504 151.07 229.865C152.362 227.226 153.256 222.568 152.298 219.771C150.99 216.051 145.915 216.448 142.149 218.388C140.399 219.383 138.984 220.87 138.078 222.662C137.173 224.455 136.818 226.474 137.058 228.466C137.683 232.395 139.285 236.105 141.718 239.26C144.271 242.979 147.319 247.208 145.628 251.309C143.936 255.41 138.319 257.35 137.489 261.531C136.18 268.191 148.006 272.563 146.681 279.207C146.059 282.387 142.58 284.485 141.415 287.521C141.038 288.802 140.946 290.15 141.144 291.47C141.342 292.791 141.827 294.052 142.564 295.167C143.904 297.52 148.835 299.936 150.335 302.209C154.197 308.075 156.591 310.158 154.532 316.723" fill="#00C1A7"></path><path d="M148.771 313.305C151.053 310.348 146.362 303.465 143.521 300.938C140.68 298.41 135.542 296.28 134.744 292.719C134.169 290.08 135.382 287.426 136.18 284.771C136.978 282.116 137.217 279.064 135.191 277.109C133.722 275.678 131.456 275.233 129.781 273.93C127.259 271.974 126.892 268.509 127.69 265.568C128.488 262.627 130.228 259.972 131.297 257.191C132.366 254.409 132.637 250.975 130.706 248.543C128.775 246.111 124.02 245.57 122.296 248.13C120.573 250.689 122.631 253.662 122.935 256.507C123.621 262.707 116.296 268.302 118.147 274.295C119.519 278.873 125.887 281.798 125.44 286.52C125.185 289.317 122.488 291.479 121.817 294.213C120.94 297.711 123.605 299.268 126.86 301.319C130.116 303.37 134.935 303.449 138.271 305.389C141.606 307.328 149.442 310.332 148.947 313.893" fill="#00C1A7"></path><path d="M162.543 313.082C166.405 312.987 174.528 306.867 176.475 303.465C178.422 300.063 179.156 296.884 177.512 293.339C176.443 291.018 174.321 289.015 174.081 286.52C173.427 280.988 181.566 277.093 181.151 271.545C180.864 267.11 175.246 264.217 174.56 259.814C174.494 257.642 174.868 255.479 175.661 253.455C176.204 251.373 176.316 248.924 174.736 247.335C172.773 245.332 168.927 245.745 166.9 247.653C165.972 248.639 165.307 249.84 164.964 251.148C164.621 252.456 164.612 253.828 164.937 255.14C165.638 257.743 166.617 260.264 167.858 262.659C169.076 265.056 169.627 267.735 169.453 270.416C168.687 275.996 162.432 280.288 162.527 285.931C162.527 289.953 165.895 293.307 167.315 297.059C169.485 302.575 165.719 307.868 162.176 312.955" fill="#00C1A7"></path><path d="M138.159 360.994L170.076 360.851C171.039 360.877 171.981 360.568 172.741 359.977C173.498 359.376 174.014 358.524 174.193 357.576L180.162 318.439C180.218 317.871 180.153 317.296 179.97 316.754C179.775 316.221 179.471 315.734 179.076 315.324C178.681 314.914 178.202 314.594 177.672 314.386C177.163 314.195 176.62 314.109 176.076 314.131L132.174 314.402C131.628 314.385 131.084 314.483 130.578 314.688C130.051 314.893 129.576 315.213 129.19 315.626C128.791 316.03 128.491 316.519 128.312 317.056C128.123 317.591 128.057 318.162 128.121 318.726L134.089 357.719C134.277 358.68 134.806 359.54 135.581 360.142C136.355 360.744 137.322 361.047 138.302 360.994H138.159Z" fill="#FFE7ED"></path><path d="M129.461 324.067H178.933C180.373 324.063 181.753 323.49 182.771 322.474C183.788 321.457 184.359 320.081 184.359 318.646V314.72C184.359 313.285 183.788 311.908 182.771 310.892C181.753 309.876 180.373 309.303 178.933 309.299H129.461C128.018 309.299 126.634 309.87 125.613 310.887C124.593 311.903 124.02 313.282 124.02 314.72V318.646C124.02 319.358 124.16 320.063 124.434 320.721C124.707 321.378 125.108 321.976 125.613 322.479C126.119 322.982 126.719 323.382 127.379 323.654C128.039 323.927 128.747 324.067 129.461 324.067Z" fill="#FFB5C9"></path></svg>