<svg xmlns="http://www.w3.org/2000/svg" viewBox="0 0 140 140" fill="none"><g clip-path="url(#clip0_1573_3485)"><path d="M102.985 21.2327H28.5288V124.686H102.985V21.2327Z" fill="#FFE7ED"></path><path d="M102.884 21.2327H28.4277V41.217H102.884V21.2327Z" fill="#FFB5C9"></path><path d="M44.7904 14.9634H38.521V27.5021H44.7904V14.9634Z" fill="#D0A100"></path><path d="M92.9892 14.9634H86.7197V27.5021H92.9892V14.9634Z" fill="#D0A100"></path><path d="M54.2935 50.231H37.4419V67.0824H54.2935V50.231Z" fill="white"></path><path d="M54.2935 74.7219H37.4419V91.5734H54.2935V74.7219Z" fill="white"></path><path d="M54.2935 99.217H37.4419V116.069H54.2935V99.217Z" fill="white"></path><g style="mix-blend-mode:multiply" opacity="0.2"><path d="M28.5288 113.806V124.69H102.985V21.2327H95.476C91.0624 50.425 76.5072 100.311 28.5288 113.802V113.806Z" fill="#FFB5C9"></path></g><path d="M82.1153 103.134C90.5561 103.134 97.3987 96.2915 97.3987 87.8508C97.3987 79.4101 90.5561 72.5676 82.1153 72.5676C73.6746 72.5676 66.832 79.4101 66.832 87.8508C66.832 96.2915 73.6746 103.134 82.1153 103.134Z" fill="white"></path><path d="M91.3233 71.3914C96.1923 71.3914 100.139 67.4444 100.139 62.5755C100.139 57.7066 96.1923 53.7595 91.3233 53.7595C86.4544 53.7595 82.5073 57.7066 82.5073 62.5755C82.5073 67.4444 86.4544 71.3914 91.3233 71.3914Z" fill="white"></path><path d="M108.959 104.31C112.315 104.31 115.035 101.59 115.035 98.2351C115.035 94.8799 112.315 92.1599 108.959 92.1599C105.604 92.1599 102.884 94.8799 102.884 98.2351C102.884 101.59 105.604 104.31 108.959 104.31Z" fill="#D4D4D3"></path><path d="M115.229 125.863C120.098 125.863 124.045 121.916 124.045 117.047C124.045 112.178 120.098 108.231 115.229 108.231C110.36 108.231 106.413 112.178 106.413 117.047C106.413 121.916 110.36 125.863 115.229 125.863Z" fill="#D4D4D3"></path><path d="M104.628 83.1758L96.5737 77.1155L127.327 34.3838C132.028 34.9663 135.307 37.4382 137.17 41.792L104.628 83.1758Z" fill="#D0A100"></path><g style="mix-blend-mode:multiply" opacity="0.45"><path d="M125.076 50.7985C117.869 60.0924 111.809 69.9687 105.849 80.0804C105.304 81.0064 104.748 81.9287 104.191 82.8435L104.632 83.1758L137.174 41.7921C136.633 40.5263 135.968 39.4248 135.184 38.4763C131.98 42.6995 128.313 46.6313 125.079 50.7985H125.076Z" fill="#D0A100"></path></g><path d="M103.388 68.0718C103.388 68.0718 59.3044 86.641 63.2438 95.5316C67.3138 104.721 104.893 78.0976 104.893 78.0976L103.388 68.0681V68.0718Z" fill="#FFD000"></path><path d="M111.663 74.2964C111.663 74.2964 106.032 121.8 96.3979 120.478C86.4393 119.112 101.611 75.6294 101.611 75.6294L111.663 74.2964Z" fill="#FFD000"></path><g style="mix-blend-mode:multiply" opacity="0.49"><path d="M79.0239 93.6721C90.8682 88.0375 104.893 78.0976 104.893 78.0976L103.388 68.0681C103.388 68.0681 94.5648 71.7872 85.1626 76.6899C83.8594 82.5485 81.5817 88.1719 79.0239 93.6683V93.6721Z" fill="#FFD000"></path></g><g style="mix-blend-mode:multiply" opacity="0.49"><path d="M103.694 97.1894C105.106 96.0805 106.652 95.2739 108.313 94.7512C110.494 84.1466 111.663 74.2964 111.663 74.2964L101.611 75.6294C101.611 75.6294 96.0807 91.4764 93.8926 104.34C96.9731 101.685 100.237 99.2618 103.694 97.1894Z" fill="#FFD000"></path></g><path d="M111.498 74.4384L107.283 71.2645L103.067 68.0906C103.067 68.0906 88.8292 82.4365 80.7227 93.2128C69.502 108.126 75.8573 113.029 75.8573 113.029C75.8573 113.029 82.3283 117.779 93.5491 102.861C101.656 92.0852 111.498 74.4309 111.498 74.4309V74.4384Z" fill="#FFD000"></path><path d="M112.563 73.2511L108.239 69.995L103.915 66.739C100.252 67.2618 93.3399 71.3766 89.4565 74.5094L99.2807 81.9027L109.105 89.296C111.039 84.6957 113.078 76.9141 112.566 73.2511H112.563Z" fill="#FFB5C9"></path><g style="mix-blend-mode:multiply" opacity="0.53"><path d="M112.562 73.2509L108.239 69.9949L107.72 69.6028C107.652 69.8194 107.585 70.0397 107.51 70.2562C105.946 74.9013 104.071 79.4605 101.936 83.9002L109.105 89.2921C111.039 84.6918 113.078 76.9102 112.566 73.2471L112.562 73.2509Z" fill="#FFB5C9"></path></g><path d="M39.7939 56.5002L45.8692 64.1997L53.5089 45.5298" stroke="#D0A100" stroke-width="1.5" stroke-linecap="round" stroke-linejoin="round"></path></g><defs><clipPath id="clip0_1573_3485"><rect width="140" height="140" fill="white"></rect></clipPath></defs></svg>