<svg xmlns="http://www.w3.org/2000/svg" viewBox="0 0 88 15" fill="currentColor"><path d="M8.37831 0.24707L10.4135 4.98258L15.6238 5.42262C15.9852 5.4533 16.1322 5.89657 15.8579 6.12992L11.9058 9.49604L13.0901 14.5036C13.1722 14.8516 12.7887 15.1254 12.4782 14.9405L8.00051 12.2857L3.52279 14.9405C3.21151 15.1245 2.82879 14.8508 2.91092 14.5036L4.09523 9.49604L0.142316 6.12911C-0.131998 5.89576 0.0141935 5.45249 0.376387 5.42181L5.58671 4.98177L7.62189 0.24707C7.76316 -0.0823566 8.23705 -0.0823566 8.37831 0.24707Z" fill="currentColor"></path><path d="M26.3783 0.24707L28.4135 4.98258L33.6238 5.42262C33.9852 5.4533 34.1322 5.89657 33.8579 6.12992L29.9058 9.49604L31.0901 14.5036C31.1722 14.8516 30.7887 15.1254 30.4782 14.9405L26.0005 12.2857L21.5228 14.9405C21.2115 15.1245 20.8288 14.8508 20.9109 14.5036L22.0952 9.49604L18.1423 6.12911C17.868 5.89576 18.0142 5.45249 18.3764 5.42181L23.5867 4.98177L25.6219 0.24707C25.7632 -0.0823566 26.237 -0.0823566 26.3783 0.24707Z" fill="currentColor"></path><path d="M44.3783 0.24707L46.4135 4.98258L51.6238 5.42262C51.9852 5.4533 52.1322 5.89657 51.8579 6.12992L47.9058 9.49604L49.0901 14.5036C49.1722 14.8516 48.7887 15.1254 48.4782 14.9405L44.0005 12.2857L39.5228 14.9405C39.2115 15.1245 38.8288 14.8508 38.9109 14.5036L40.0952 9.49604L36.1423 6.12911C35.868 5.89576 36.0142 5.45249 36.3764 5.42181L41.5867 4.98177L43.6219 0.24707C43.7632 -0.0823566 44.237 -0.0823566 44.3783 0.24707Z" fill="currentColor"></path><path d="M62.3783 0.24707L64.4135 4.98258L69.6238 5.42262C69.9852 5.4533 70.1322 5.89657 69.8579 6.12992L65.9058 9.49604L67.0901 14.5036C67.1722 14.8516 66.7887 15.1254 66.4782 14.9405L62.0005 12.2857L57.5228 14.9405C57.2115 15.1245 56.8288 14.8508 56.9109 14.5036L58.0952 9.49604L54.1423 6.12911C53.868 5.89576 54.0142 5.45249 54.3764 5.42181L59.5867 4.98177L61.6219 0.24707C61.7632 -0.0823566 62.237 -0.0823566 62.3783 0.24707Z" fill="currentColor"></path><path d="M80.3783 0.24707L82.4135 4.98258L87.6238 5.42262C87.9852 5.4533 88.1322 5.89657 87.8579 6.12992L83.9058 9.49604L85.0901 14.5036C85.1722 14.8516 84.7887 15.1254 84.4782 14.9405L80.0005 12.2857L75.5228 14.9405C75.2115 15.1245 74.8288 14.8508 74.9109 14.5036L76.0952 9.49604L72.1423 6.12911C71.868 5.89576 72.0142 5.45249 72.3764 5.42181L77.5867 4.98177L79.6219 0.24707C79.7632 -0.0823566 80.237 -0.0823566 80.3783 0.24707Z" fill="currentColor"></path></svg>