<svg xmlns="http://www.w3.org/2000/svg" viewBox="0 0 80 106" fill="none"><g clip-path="url(#clip0_1469_3047)"><path d="M45.5861 10.9951C49.4221 10.9951 52.6233 13.9667 53.371 17.9207C54.5713 17.3591 55.881 17.0683 57.207 17.069C62.465 17.069 66.7282 21.5766 66.7282 27.1395C66.7279 27.6483 66.6922 28.1564 66.6214 28.6603C67.3157 28.4596 68.0348 28.3573 68.7576 28.3561C73.3901 28.3622 77.1589 32.4682 77.1589 37.5202C77.1589 42.5722 73.3992 46.6691 68.7637 46.6691C68.4373 46.6688 68.1111 46.6485 67.7872 46.6083V51.3987H10.0493V46.5931C5.41069 46.5931 1.651 42.703 1.651 37.9034C1.651 33.1039 5.41069 29.2169 10.0493 29.2169C11.1972 29.2181 12.3319 29.4617 13.3786 29.9316C13.2493 29.2652 13.1849 28.5878 13.1864 27.909C13.1864 22.3461 17.4587 17.8355 22.7076 17.8355C24.2395 17.8486 25.7447 18.2366 27.091 18.9653C28.4372 19.694 29.5833 20.7411 30.4284 22.0145C30.9851 21.0788 31.7743 20.3018 32.7198 19.7584C33.6654 19.2151 34.7354 18.9236 35.8269 18.9122C36.4414 18.9126 37.0524 19.0049 37.6396 19.1859C37.8867 14.6176 41.3504 10.9951 45.5861 10.9951Z" fill="#C9F1FF"></path><path d="M7.72988 41.2734C11.7764 37.6236 18.0751 35.7835 25.4297 37.6236C32.7842 39.4637 36.074 28.1067 42.8243 28.1067C49.5746 28.1067 52.4219 34.3266 56.621 34.5121C60.8201 34.6977 71.1653 32.8363 72.6668 37.6236C73.6636 40.8111 72.9638 43.6874 70.5672 46.2524C57.6525 49.3852 47.5412 51.0996 40.2334 51.3956C32.9256 51.6917 22.0891 50.8187 7.72377 48.7769C5.02608 46.2159 5.02812 43.7148 7.72988 41.2734Z" fill="url(#paint0_linear_1469_3047)"></path><path d="M15.4751 27.8602C15.0737 26.3807 15.1812 24.8099 15.7802 23.3983C16.3906 21.9627 17.2908 21.0918 18.481 20.7856C17.6814 21.3939 16.9816 22.4706 16.3814 24.0157C15.7813 25.5608 15.4791 26.8423 15.4751 27.8602Z" fill="white"></path><path d="M47.3164 12.5463C47.8587 12.4605 48.4138 12.5069 48.9341 12.6817C49.4545 12.8565 49.9245 13.1545 50.304 13.55C50.7167 13.9523 51.0359 14.4401 51.2389 14.9787C51.4419 15.5174 51.5238 16.0939 51.4789 16.6676C51.1605 15.65 50.5608 14.7424 49.7486 14.0488C48.827 13.2033 48.0163 12.7024 47.3164 12.5463Z" fill="white"></path><path d="M61.29 20.2412C62.7156 21.2647 63.7608 22.7299 64.2624 24.4081C64.7913 26.1154 64.655 27.5439 63.8535 28.6936C64.0915 27.5642 63.9104 26.1012 63.3103 24.3047C62.7101 22.5082 62.0367 21.1537 61.29 20.2412Z" fill="white"></path><path d="M76.6644 48.5701L67.5552 95.8596C67.0669 101.489 54.8052 106 39.7543 106C24.7034 106 12.4417 101.489 11.9534 95.8596L2.84412 48.5701H76.6644Z" fill="white"></path><path d="M76.6645 48.6857L67.5522 95.884C67.067 101.502 54.8053 106 39.7544 106H39.4889V105.848C49.3611 104.364 57.1093 92.1612 57.0605 77.3459C56.9842 54.273 18.5665 52.1013 7.73914 52.1013C7.73914 52.1013 8.32201 50.0239 9.26498 49.9449C30.7733 48.1717 76.6645 48.6857 76.6645 48.6857Z" fill="#CBF4FF"></path><path d="M3.86955 42.6573C15.9441 46.6457 28.0023 48.6399 40.0443 48.6399C52.0862 48.6399 64.115 46.6457 76.1305 42.6573C76.569 42.5071 77.0372 42.4631 77.4962 42.529C77.9552 42.595 78.3918 42.7689 78.77 43.0364C79.1481 43.3039 79.4569 43.6573 79.6708 44.0674C79.8847 44.4775 79.9976 44.9325 80 45.3946V47.4811C80.0006 48.0846 79.8167 48.674 79.4726 49.1707C79.1286 49.6674 78.6408 50.0477 78.0744 50.2611C65.4201 55.1052 52.7433 57.5283 40.0443 57.5303C27.3452 57.5323 14.6369 55.1093 1.91951 50.2611C1.35614 50.0475 0.87105 49.6686 0.528327 49.1744C0.185604 48.6802 0.00137895 48.094 0 47.4933V45.3946C0.0077312 44.9343 0.123993 44.4823 0.339394 44.0751C0.554795 43.6678 0.863293 43.3168 1.23996 43.0503C1.61663 42.7839 2.05091 42.6094 2.50771 42.5412C2.9645 42.4729 3.43102 42.5127 3.86955 42.6573Z" fill="#BFBEC2"></path><path fill-rule="evenodd" clip-rule="evenodd" d="M3.86955 42.6573C15.9441 46.6457 28.0023 48.6399 40.0443 48.6399C52.0862 48.6399 64.115 46.6457 76.1305 42.6573C76.569 42.5071 77.0372 42.4631 77.4962 42.529C77.9552 42.595 78.3918 42.7689 78.77 43.0364C79.1481 43.3039 79.4569 43.6573 79.6708 44.0674C79.8847 44.4775 79.9976 44.9325 80 45.3946V47.4811C80.0006 48.0846 79.8167 48.674 79.4726 49.1707C79.1286 49.6674 78.6408 50.0477 78.0744 50.2611C65.4201 55.1052 52.7433 57.5283 40.0443 57.5303C27.3452 57.5323 14.6369 55.1093 1.91951 50.2611C1.35614 50.0475 0.87105 49.6686 0.528327 49.1744C0.185604 48.6802 0.00137895 48.094 0 47.4933V45.3946C0.0077312 44.9343 0.123993 44.4823 0.339394 44.0751C0.554795 43.6678 0.863293 43.3168 1.23996 43.0503C1.61663 42.7839 2.05091 42.6094 2.50771 42.5412C2.9645 42.4729 3.43102 42.5127 3.86955 42.6573Z" fill="#DFF8FF"></path><path d="M57.21 46.7055L72.4074 42.1128C74.159 43.7065 75.2627 45.2385 75.7185 46.7085C76.1742 48.1786 76.0521 49.818 75.3523 51.6267L60.1518 56.2194C60.6722 54.5735 60.6807 52.8091 60.1762 51.1583C59.6094 49.4341 58.5843 47.8953 57.21 46.7055Z" fill="#B2EDFC"></path><path d="M54.9456 10.995C55.726 10.995 56.3586 10.37 56.3586 9.59894C56.3586 8.82792 55.726 8.20288 54.9456 8.20288C54.1653 8.20288 53.5327 8.82792 53.5327 9.59894C53.5327 10.37 54.1653 10.995 54.9456 10.995Z" fill="#C9F1FF"></path><path d="M37.9874 2.79211C38.7677 2.79211 39.4003 2.16708 39.4003 1.39606C39.4003 0.625036 38.7677 0 37.9874 0C37.2071 0 36.5745 0.625036 36.5745 1.39606C36.5745 2.16708 37.2071 2.79211 37.9874 2.79211Z" fill="#C9F1FF"></path><path d="M16.3997 15.1832C17.5694 15.1832 18.5176 14.2449 18.5176 13.0876C18.5176 11.9302 17.5694 10.9919 16.3997 10.9919C15.2301 10.9919 14.2819 11.9302 14.2819 13.0876C14.2819 14.2449 15.2301 15.1832 16.3997 15.1832Z" fill="#C9F1FF"></path><path d="M30.88 13.0908C32.8301 13.0908 34.4109 11.5275 34.4109 9.59909C34.4109 7.67069 32.8301 6.10742 30.88 6.10742C28.93 6.10742 27.3492 7.67069 27.3492 9.59909C27.3492 11.5275 28.93 13.0908 30.88 13.0908Z" fill="#C9F1FF"></path><path d="M31.3195 6.89185C32.1159 6.98005 32.7324 7.24162 32.9979 8.02633" stroke="white" stroke-width="2.43" stroke-linecap="round"></path><path d="M37.9447 0.523193C38.4147 0.523193 38.7076 0.69656 38.8266 1.04633" stroke="white" stroke-width="2.43" stroke-linecap="round"></path><path d="M55.0739 8.81128C55.5438 8.81128 55.7818 9.01506 55.7818 9.41958" stroke="white" stroke-width="2.43" stroke-linecap="round"></path><path d="M16.8392 11.865C17.0913 11.9157 17.3208 12.0445 17.495 12.2329C17.6693 12.4214 17.7794 12.6598 17.8097 12.9143" stroke="white" stroke-width="2.43" stroke-linecap="round"></path><path d="M26.1256 83.5079C27.4772 83.5079 28.573 82.4253 28.573 81.0899C28.573 79.7544 27.4772 78.6719 26.1256 78.6719C24.7739 78.6719 23.6781 79.7544 23.6781 81.0899C23.6781 82.4253 24.7739 83.5079 26.1256 83.5079Z" fill="#FFB5C9"></path><path d="M53.9599 83.5079C55.3116 83.5079 56.4074 82.4253 56.4074 81.0899C56.4074 79.7544 55.3116 78.6719 53.9599 78.6719C52.6082 78.6719 51.5125 79.7544 51.5125 81.0899C51.5125 82.4253 52.6082 83.5079 53.9599 83.5079Z" fill="#FFB5C9"></path><path d="M28.8537 78.0697C31.016 78.0697 32.769 76.3375 32.769 74.2008C32.769 72.0642 31.016 70.332 28.8537 70.332C26.6913 70.332 24.9384 72.0642 24.9384 74.2008C24.9384 76.3375 26.6913 78.0697 28.8537 78.0697Z" fill="#023251"></path><path d="M27.63 74.0822C28.3058 74.0822 28.8537 73.5402 28.8537 72.8717C28.8537 72.2031 28.3058 71.6611 27.63 71.6611C26.9541 71.6611 26.4062 72.2031 26.4062 72.8717C26.4062 73.5402 26.9541 74.0822 27.63 74.0822Z" fill="white"></path><path d="M50.3925 78.0697C52.5549 78.0697 54.3078 76.3375 54.3078 74.2008C54.3078 72.0642 52.5549 70.332 50.3925 70.332C48.2301 70.332 46.4772 72.0642 46.4772 74.2008C46.4772 76.3375 48.2301 78.0697 50.3925 78.0697Z" fill="#023251"></path><path d="M49.1688 74.0822C49.8446 74.0822 50.3925 73.5402 50.3925 72.8717C50.3925 72.2031 49.8446 71.6611 49.1688 71.6611C48.4929 71.6611 47.9451 72.2031 47.9451 72.8717C47.9451 73.5402 48.4929 74.0822 49.1688 74.0822Z" fill="white"></path><path d="M33.2787 83.1096C33.2787 83.1096 37.606 84.235 39.8856 84.235C42.1652 84.235 46.4925 83.1096 46.4925 83.1096C46.4925 83.1096 45.8089 89.4117 39.8856 89.4117C33.9623 89.4117 33.2787 83.1096 33.2787 83.1096Z" fill="#410622"></path><path d="M39.8855 91.2579C42.54 91.2579 44.6919 89.9778 44.6919 88.3988C44.6919 86.8198 42.54 85.5398 39.8855 85.5398C37.231 85.5398 35.0791 86.8198 35.0791 88.3988C35.0791 89.9778 37.231 91.2579 39.8855 91.2579Z" fill="#DE0842"></path></g><defs><linearGradient id="paint0_linear_1469_3047" x1="45.4793" y1="53.9231" x2="36.1994" y2="35.7827" gradientUnits="userSpaceOnUse"><stop stop-color="#92E2FF"></stop><stop offset="1" stop-color="#B8ECFE"></stop></linearGradient><clipPath id="clip0_1469_3047"><rect width="80" height="106" fill="white"></rect></clipPath></defs></svg>