<svg xmlns="http://www.w3.org/2000/svg" viewBox="0 0 138 170" fill="none"><g clip-path="url(#clip0_1486_5220)"><path d="M49.0248 146.876H54.118L56.9937 137.853C54.5398 137.538 52.2009 137.119 50.0249 136.615L49.0248 146.876Z" fill="#DFF6FC"></path><path d="M21.9546 55.7685L24.8654 56.714C25.3924 55.6757 26.1209 54.7495 27.0095 53.9878C32.304 49.2005 40.5637 46.8084 50.1943 49.2005C59.8248 51.5926 64.1543 36.7578 72.9828 36.7578C81.8113 36.7578 85.5562 44.8764 91.052 45.1033C92.3301 45.1601 94.0811 45.0718 96.0111 44.9804C102.271 44.6873 110.572 44.3879 112.077 49.1721C112.538 50.5019 112.728 51.9086 112.636 53.3111C112.544 54.7137 112.171 56.0844 111.54 57.3443C112.179 57.1584 112.818 56.9693 113.438 56.7739C114.259 56.5249 115.084 56.257 115.908 55.986C117.249 53.9161 117.955 51.5086 117.943 49.0523C117.943 42.4339 113.019 37.0761 106.942 37.0761C105.996 37.0751 105.055 37.2066 104.146 37.4669C104.242 36.804 104.29 36.1352 104.29 35.4656C104.309 28.201 98.727 22.3011 91.8285 22.3011C90.0945 22.3057 88.3833 22.69 86.8183 23.4263C85.8597 18.2576 81.6452 14.3716 76.6222 14.3716C71.0721 14.3716 66.5124 19.1211 66.2281 25.0872C65.4601 24.848 64.6593 24.7279 63.854 24.7311C62.4207 24.748 61.0163 25.1305 59.7772 25.8413C58.5382 26.552 57.5066 27.5669 56.7829 28.7872C55.6825 27.1278 54.1843 25.7615 52.4209 24.8094C50.6575 23.8573 48.6833 23.3487 46.6731 23.3286C39.7713 23.3286 34.1828 29.2253 34.1828 36.4993C34.1796 37.3866 34.263 38.2721 34.432 39.1436C33.0582 38.5232 31.5655 38.2008 30.0545 38.1981C23.9835 38.1981 19.0565 43.2817 19.0565 49.5598C19.0491 51.6654 19.6176 53.7341 20.702 55.5479C21.1292 55.5509 21.5527 55.6255 21.9546 55.7685ZM101.085 31.9011C101.775 34.1198 101.597 35.9877 100.551 37.5047C100.871 36.0339 100.634 34.1219 99.839 31.7687C99.0444 29.4155 98.1668 27.6495 97.2061 26.4708C99.069 27.8118 100.433 29.7199 101.088 31.9011H101.085ZM82.7923 17.7186C83.3344 18.2469 83.753 18.8856 84.019 19.59C84.285 20.2943 84.3919 21.0475 84.3324 21.7969C83.9205 20.4684 83.1362 19.2819 82.0701 18.3742C80.873 17.2669 79.8175 16.6061 78.9036 16.3918C79.6117 16.2852 80.3355 16.3501 81.0125 16.5809C81.6908 16.8135 82.3023 17.2037 82.7955 17.7186H82.7923ZM41.091 27.1736C40.0408 27.9762 39.1238 29.3829 38.3399 31.3936C37.6449 32.9917 37.2456 34.6995 37.1608 36.4363C36.6289 34.5049 36.7627 32.454 37.541 30.6057C38.3356 28.7253 39.52 27.5843 41.0942 27.183L41.091 27.1736Z" fill="#BEF1FF"></path><path d="M92.5059 61.7251C93.2312 61.6085 93.9501 61.4793 94.6914 61.35L95.273 61.246C95.9376 61.1263 96.6022 61.0002 97.2604 60.871L98.0465 60.7197L99.9285 60.3289L100.823 60.1367L102.638 59.7269L103.597 59.5L105.373 59.0683L106.361 58.8098C106.948 58.6585 107.536 58.4946 108.128 58.3371L109.022 58.0849C109.859 57.8496 110.699 57.609 111.54 57.3632C112.171 56.1032 112.544 54.7325 112.636 53.33C112.728 51.9274 112.538 50.5208 112.077 49.191C110.572 44.4036 102.283 44.6999 96.0111 44.9993C94.0939 45.0875 92.3493 45.1789 91.052 45.1222C85.5498 44.8827 81.8209 36.7451 72.9829 36.7451C64.1448 36.7451 59.8248 51.5925 50.1975 49.191C40.5702 46.7894 32.304 49.191 27.0127 53.9783C26.1242 54.7388 25.3957 55.664 24.8687 56.7014C37.8305 60.7667 51.2959 63.0614 64.8893 63.5215H73.8072L75.0534 63.4837C75.7244 63.4554 76.3922 63.4207 77.0632 63.3829L77.8716 63.3419C78.6512 63.2915 79.4309 63.2347 80.2105 63.178L80.6643 63.1465C81.5206 63.0772 82.3769 62.9984 83.2396 62.9164H83.4505C84.3601 62.8282 85.2697 62.7305 86.1793 62.6233H86.2336C88.0996 62.4132 89.9688 62.1548 91.8413 61.848L92.4228 61.7251H92.5059Z" fill="#BEF1FF"></path><path d="M92.5059 61.7251C93.2312 61.6085 93.9501 61.4793 94.6914 61.35L95.273 61.246C95.9376 61.1263 96.6022 61.0002 97.2604 60.871L98.0465 60.7197L99.9285 60.3289L100.823 60.1367L102.638 59.7269L103.597 59.5L105.373 59.0683L106.361 58.8098C106.948 58.6585 107.536 58.4946 108.128 58.3371L109.022 58.0849C109.859 57.8496 110.699 57.609 111.54 57.3632C112.171 56.1032 112.544 54.7325 112.636 53.33C112.728 51.9274 112.538 50.5208 112.077 49.191C110.572 44.4036 102.283 44.6999 96.0111 44.9993C94.0939 45.0875 92.3493 45.1789 91.052 45.1222C85.5498 44.8827 81.8209 36.7451 72.9829 36.7451C64.1448 36.7451 59.8248 51.5925 50.1975 49.191C40.5702 46.7894 32.304 49.191 27.0127 53.9783C26.1242 54.7388 25.3957 55.664 24.8687 56.7014C37.8305 60.7667 51.2959 63.0614 64.8893 63.5215H73.8072L75.0534 63.4837C75.7244 63.4554 76.3922 63.4207 77.0632 63.3829L77.8716 63.3419C78.6512 63.2915 79.4309 63.2347 80.2105 63.178L80.6643 63.1465C81.5206 63.0772 82.3769 62.9984 83.2396 62.9164H83.4505C84.3601 62.8282 85.2697 62.7305 86.1793 62.6233H86.2336C88.0996 62.4132 89.9688 62.1548 91.8413 61.848L92.4228 61.7251H92.5059Z" fill="url(#paint0_linear_1486_5220)"></path><path d="M37.1639 36.4331C37.2487 34.6963 37.6481 32.9885 38.343 31.3905C39.129 29.3818 40.0461 27.9751 41.0941 27.1704C39.5199 27.5738 38.3398 28.7137 37.5538 30.5899C36.7696 32.4409 36.6324 34.4967 37.1639 36.4331Z" fill="white"></path><path d="M84.3133 21.7968C84.3733 21.0471 84.2663 20.2935 83.9997 19.589C83.733 18.8845 83.3133 18.246 82.77 17.7185C82.2795 17.2017 81.669 16.8103 80.9909 16.578C80.3129 16.3458 79.5879 16.2797 78.8782 16.3854C79.792 16.5955 80.8475 17.2573 82.0447 18.3709C83.1123 19.2798 83.8985 20.4672 84.3133 21.7968Z" fill="white"></path><path d="M100.558 37.5109C101.602 36.0086 101.78 34.1408 101.092 31.9073C100.437 29.7234 99.0715 27.8129 97.2062 26.4707C98.1669 27.6557 99.0445 29.4217 99.8391 31.7686C100.634 34.1156 100.873 36.0297 100.558 37.5109Z" fill="white"></path><path d="M91.6432 101.136C91.6017 87.9657 81.9808 80.0204 69.9826 75.2205H69.3435C53.3012 75.2268 37.2397 72.2716 21.1591 66.3549L25.2777 87.7231L25.3992 87.3669L28.5529 100.84L28.0033 101.824L32.547 125.341C32.9623 130.119 39.8705 134.273 50.0506 136.605C52.2361 137.103 54.5719 137.522 57.0226 137.844C60.8698 138.338 64.7449 138.591 68.6246 138.6V138.405C81.559 136.473 91.7103 120.529 91.6432 101.136ZM90.7869 106.037C90.7852 106.713 90.5635 107.37 90.1545 107.912C89.7455 108.454 89.1707 108.852 88.515 109.047C87.8593 109.242 87.1574 109.224 86.5127 108.996C85.868 108.768 85.3147 108.342 84.9344 107.78C84.554 107.218 84.3668 106.551 84.4002 105.876C84.4337 105.201 84.6861 104.555 85.1202 104.032C85.5543 103.51 86.1471 103.138 86.8113 102.973C87.4754 102.808 88.1758 102.858 88.809 103.116C89.1986 103.274 89.5524 103.508 89.8502 103.802C90.148 104.096 90.3838 104.446 90.5441 104.83C90.7042 105.214 90.7867 105.625 90.7869 106.04V106.037ZM88.039 97.0141C88.039 98.0152 87.738 98.9938 87.1742 99.8262C86.6103 100.659 85.8088 101.307 84.8712 101.69C83.9335 102.073 82.9017 102.174 81.9063 101.978C80.9108 101.783 79.9965 101.301 79.2788 100.593C78.5612 99.8853 78.0724 98.9834 77.8744 98.0016C77.6764 97.0197 77.778 96.002 78.1664 95.0771C78.5548 94.1523 79.2126 93.3618 80.0564 92.8056C80.9003 92.2494 81.8925 91.9526 82.9074 91.9526C83.5826 91.9534 84.2511 92.084 84.8757 92.3371C85.8178 92.7195 86.6225 93.3709 87.1867 94.2076C87.7509 95.0443 88.0488 96.0282 88.0422 97.033L88.039 97.0141ZM47.9097 106.037C47.9111 105.309 48.1683 104.603 48.6378 104.04C49.1073 103.478 49.7599 103.093 50.4846 102.951C51.2093 102.81 51.9614 102.92 52.6127 103.264C53.2641 103.608 53.7745 104.164 54.0572 104.837C54.3398 105.51 54.3772 106.259 54.163 106.957C53.9487 107.654 53.4961 108.257 52.8821 108.662C52.2682 109.067 51.5308 109.25 50.7955 109.18C50.0602 109.109 49.3724 108.789 48.8491 108.275C48.2481 107.681 47.9103 106.876 47.9097 106.037ZM54.6933 102.085C53.506 102.085 52.3553 101.679 51.4374 100.936C50.5196 100.194 49.8912 99.1598 49.6596 98.0111C49.4279 96.8625 49.6073 95.6702 50.167 94.6374C50.7267 93.6046 51.6323 92.7952 52.7292 92.3471C53.8262 91.8991 55.0468 91.8401 56.1829 92.1802C57.3191 92.5203 58.3005 93.2385 58.9599 94.2124C59.6194 95.1863 59.916 96.3556 59.7993 97.5211C59.6826 98.6865 59.1597 99.776 58.3199 100.604C57.3578 101.552 56.0534 102.085 54.6933 102.085ZM62.854 114.146C61.5943 112.562 60.7808 110.678 60.4959 108.685C60.4959 108.685 66.1642 110.156 69.1582 110.156C72.1522 110.156 77.8237 108.685 77.8237 108.685C77.5388 110.678 76.7253 112.562 75.4656 114.146C75.3719 114.258 75.2761 114.363 75.1781 114.462C74.3898 115.245 73.4522 115.866 72.4193 116.291C71.3864 116.715 70.2786 116.933 69.1598 116.933C68.041 116.933 66.9332 116.715 65.9003 116.291C64.8674 115.866 63.9298 115.245 63.1415 114.462C63.0436 114.361 62.9477 114.256 62.854 114.146Z" fill="#DFF6FC"></path><path d="M68.9249 138.613H68.992C71.7975 138.613 74.5262 138.49 77.1495 138.263C74.5262 138.487 71.7975 138.61 68.992 138.61L68.9249 138.613Z" fill="#D4F7FF"></path><path d="M64.8893 63.5151C66.3751 63.5624 67.8641 63.5908 69.3626 63.5908C70.3212 63.5908 71.2798 63.5908 72.2384 63.5624L73.7178 63.5214H64.8893V63.5151Z" fill="#D4F7FF"></path><path d="M109.463 100.424L112.617 86.9477L112.748 87.3385L116.751 66.6165L115.793 66.9694C114.962 67.2636 114.131 67.5514 113.301 67.833C112.76 68.0137 112.22 68.1902 111.681 68.3625L110.565 68.7249L108.795 69.2607L107.894 69.5317C107.255 69.7208 106.616 69.9099 105.977 70.0927L105.597 70.1967C101.073 71.4575 96.4874 72.4905 91.8572 73.2916C91.0233 73.4335 90.1957 73.569 89.3617 73.6951L88.9144 73.7675C88.1625 73.8768 87.4169 73.9819 86.6777 74.0827L85.9556 74.1804C85.2654 74.2687 84.5774 74.3506 83.8915 74.4262L82.9329 74.5239C82.2938 74.5933 81.6548 74.6532 81.0349 74.7099L79.875 74.8044C79.3031 74.8517 78.7343 74.8958 78.1624 74.9337L76.7565 75.0187L75.2579 75.1007C74.67 75.1291 74.0788 75.1417 73.4909 75.1606L72.3278 75.1984C71.5514 75.1984 70.7781 75.2236 70.0017 75.2268C82.0031 80.0141 91.6208 87.972 91.6655 101.143C91.7262 120.532 81.5557 136.476 68.6597 138.417V138.613H69.008C71.8134 138.613 74.5421 138.49 77.1654 138.266C78.1592 138.181 79.1337 138.08 80.0987 137.951L79.8942 137.321C79.8431 137.166 79.9869 137.005 80.1946 137.005L86.9046 136.64C86.9649 136.636 87.0253 136.647 87.0803 136.671C87.1373 136.695 87.1862 136.734 87.2209 136.785C97.81 134.49 105.031 130.261 105.434 125.388L110.064 101.436L109.463 100.424Z" fill="#C0EFFF"></path><path d="M116.633 55.7716L116.438 55.8346L116.633 55.7716Z" fill="#BEBDC1"></path><path d="M106.383 58.7909L105.396 59.0493L106.383 58.7909Z" fill="#BEBDC1"></path><path d="M80.6674 63.1497L80.2137 63.1843L80.6674 63.1497Z" fill="#BEBDC1"></path><path d="M109.025 58.0786L108.131 58.3307L109.025 58.0786Z" fill="#BEBDC1"></path><path d="M103.6 59.4717L102.641 59.6986L103.6 59.4717Z" fill="#BEBDC1"></path><path d="M98.0465 60.704L97.2605 60.8584L98.0465 60.704Z" fill="#BEBDC1"></path><path d="M77.8717 63.3356L77.0632 63.3797L77.8717 63.3356Z" fill="#BEBDC1"></path><path d="M100.823 60.1208L99.9285 60.3163L100.823 60.1208Z" fill="#BEBDC1"></path><path d="M95.2731 61.2523L94.6915 61.3563L95.2731 61.2523Z" fill="#BEBDC1"></path><path d="M91.8413 61.8165L92.4229 61.7251L91.8413 61.8165Z" fill="#BEBDC1"></path><path d="M73.6987 63.5152L75.0599 63.4742L73.8138 63.5121L73.6987 63.5152Z" fill="#BEBDC1"></path><path d="M72.2064 63.5687C71.2414 63.5876 70.2829 63.5971 69.3307 63.5971C70.2999 63.5929 71.2585 63.5834 72.2064 63.5687Z" fill="#BEBDC1"></path><path d="M116.438 66.7362L115.799 66.9631L116.758 66.6133C117.569 66.317 118.381 66.0239 119.189 65.7087C118.272 66.0649 117.355 66.4052 116.438 66.7362Z" fill="#BEBDC1"></path><path d="M91.8413 73.2916C91.0074 73.4335 90.1798 73.569 89.3458 73.695C90.1766 73.569 91.0084 73.4345 91.8413 73.2916Z" fill="#BEBDC1"></path><path d="M79.859 74.7981L78.1464 74.9273C78.7183 74.8926 79.2903 74.8454 79.859 74.7981Z" fill="#BEBDC1"></path><path d="M85.9204 74.1709C85.2302 74.2591 84.5411 74.3411 83.853 74.4167C84.5517 74.3411 85.2408 74.2591 85.9204 74.1709Z" fill="#BEBDC1"></path><path d="M88.8952 73.7612C88.1433 73.8789 87.3977 73.984 86.6586 74.0764C87.4041 73.9797 88.1497 73.8747 88.8952 73.7612Z" fill="#BEBDC1"></path><path d="M82.9169 74.5176L81.0189 74.7035C81.6516 74.6468 82.2843 74.5848 82.9169 74.5176Z" fill="#BEBDC1"></path><path d="M111.677 68.3719C112.217 68.1985 112.757 68.0252 113.297 67.8424C112.757 68.0157 112.217 68.1891 111.677 68.3719Z" fill="#BEBDC1"></path><path d="M110.556 68.7249L108.792 69.2606L110.556 68.7249Z" fill="#BEBDC1"></path><path d="M91.8445 73.2885C96.4746 72.4862 101.06 71.4522 105.584 70.1904C102.374 71.0834 99.1648 71.8576 95.9568 72.5132C94.586 72.7937 93.2089 73.049 91.8445 73.2885Z" fill="#BEBDC1"></path><path d="M76.7405 75.0219L75.2419 75.1006L76.7405 75.0219Z" fill="#BEBDC1"></path><path d="M107.907 69.5317C107.268 69.7208 106.629 69.9131 105.99 70.0927C106.629 69.8973 107.268 69.7082 107.907 69.5317Z" fill="#BEBDC1"></path><path d="M73.4749 75.1573L72.3118 75.1952L73.4749 75.1573Z" fill="#BEBDC1"></path><path d="M121.5 58.1637C121.17 57.2149 120.474 56.433 119.562 55.9884C118.651 55.5439 117.598 55.4728 116.633 55.7905L116.438 55.8536L115.93 56.0143C115.106 56.279 114.285 56.5469 113.46 56.8022C114.631 58.0283 115.526 59.4847 116.087 61.0759C116.626 63.0177 116.525 65.0783 115.799 66.96L116.438 66.7299C117.355 66.4148 118.269 66.0618 119.19 65.7151C119.93 65.433 120.566 64.9362 121.014 64.2903C121.463 63.6445 121.702 62.8798 121.701 62.097V59.3519C121.698 58.9478 121.63 58.5468 121.5 58.1637Z" fill="#74D8FC"></path><path d="M95.7267 66.9001C95.0916 64.9392 93.9843 63.1592 92.4995 61.7125H92.41L91.8349 61.8007C89.9688 62.097 88.0996 62.3554 86.2272 62.576H86.1793C85.2654 62.6832 84.358 62.7809 83.4473 62.8691H83.2364C82.3801 62.9511 81.5206 63.0299 80.661 63.0992L80.2073 63.1307C79.4277 63.1938 78.648 63.2442 77.8684 63.2915L77.06 63.3356C76.3922 63.3734 75.7212 63.4081 75.0534 63.4364L73.6922 63.4774L72.2128 63.5215C71.2542 63.5405 70.2956 63.5499 69.3371 63.5499C67.8513 63.5499 66.3623 63.5215 64.8637 63.4743C51.266 63.0153 37.7963 60.7205 24.8303 56.6541C23.8696 56.3536 22.8993 56.0385 21.9194 55.7086C21.3404 55.5173 20.7236 55.4645 20.1198 55.5545C19.516 55.6445 18.9426 55.8748 18.4467 56.2263C17.9509 56.5778 17.5468 57.0405 17.2678 57.5762C16.9889 58.112 16.843 58.7055 16.8422 59.3078V62.034C16.8425 62.8173 17.0832 63.5821 17.5326 64.2279C17.982 64.8737 18.6191 65.3702 19.36 65.652C19.948 65.8758 20.5359 66.0838 21.1206 66.3044C37.2055 72.2547 53.282 75.2299 69.3498 75.2299H69.9889C70.7653 75.2299 71.5386 75.2299 72.315 75.2015L73.4781 75.1637C74.066 75.1637 74.6572 75.1259 75.2451 75.1007L76.7437 75.0219L78.1496 74.9368L79.8622 74.8076L81.0221 74.713L82.9201 74.5271L83.8787 74.4262C84.5688 74.3506 85.2569 74.2687 85.9428 74.1804L86.6649 74.0859C87.4169 73.985 88.1678 73.8799 88.9176 73.7707L89.3649 73.7014C90.1989 73.5721 91.0265 73.4398 91.8604 73.2979C93.228 73.0647 94.5956 72.8063 95.9631 72.5226C96.3744 70.6595 96.293 68.7233 95.7267 66.9001Z" fill="#74D8FC"></path><path d="M116.087 61.0789C115.526 59.4881 114.631 58.0318 113.46 56.8053C112.821 57.0007 112.182 57.1866 111.563 57.3757C110.725 57.6247 109.888 57.8643 109.045 58.0975L108.15 58.3496L106.383 58.8413L105.396 59.0965L103.619 59.5283L102.661 59.7584L100.846 60.165L99.9509 60.3604L98.0657 60.7323L97.2797 60.8867C96.6151 61.0127 95.9505 61.142 95.2923 61.2617L94.7107 61.3657C93.9822 61.4918 93.2664 61.621 92.5251 61.7408C94.0148 63.1859 95.1266 64.9661 95.7651 66.9284C96.3272 68.7494 96.4043 70.6826 95.9888 72.5415C99.1969 71.8859 102.406 71.1127 105.616 70.2219L105.996 70.1147C106.635 69.9351 107.274 69.746 107.914 69.5569L108.815 69.2858L110.562 68.7469L111.687 68.3718C112.227 68.1985 112.767 68.0252 113.307 67.8424C114.138 67.5629 114.969 67.2751 115.799 66.9788C116.529 65.0924 116.629 63.0257 116.087 61.0789Z" fill="#58CEF4"></path><path d="M88.8761 14.381C89.2426 14.381 89.6009 14.2738 89.9057 14.0729C90.2104 13.8721 90.448 13.5866 90.5883 13.2526C90.7285 12.9186 90.7652 12.551 90.6937 12.1964C90.6222 11.8419 90.4457 11.5161 90.1865 11.2605C89.9273 11.0049 89.5971 10.8308 89.2376 10.7602C88.8781 10.6897 88.5055 10.7259 88.1669 10.8642C87.8282 11.0026 87.5388 11.2369 87.3352 11.5375C87.1315 11.8381 87.0228 12.1915 87.0228 12.5531C87.0228 13.0379 87.2181 13.5028 87.5656 13.8456C87.9132 14.1884 88.3846 14.381 88.8761 14.381Z" fill="#BEF1FF"></path><path d="M66.6531 3.65591C67.0196 3.65591 67.3779 3.54871 67.6827 3.34785C67.9874 3.14699 68.225 2.8615 68.3652 2.52748C68.5055 2.19347 68.5422 1.82593 68.4707 1.47134C68.3992 1.11675 68.2227 0.791044 67.9635 0.535399C67.7043 0.279755 67.3741 0.105657 67.0146 0.035125C66.6551 -0.0354071 66.2825 0.000790682 65.9438 0.139144C65.6052 0.277498 65.3158 0.511794 65.1121 0.8124C64.9085 1.11301 64.7998 1.46643 64.7998 1.82796C64.8006 2.31251 64.9962 2.77697 65.3435 3.1196C65.6909 3.46223 66.1618 3.65508 66.6531 3.65591Z" fill="#BEF1FF"></path><path d="M38.3719 19.8554C38.9211 19.8554 39.4579 19.6948 39.9145 19.3938C40.3711 19.0929 40.727 18.6651 40.9372 18.1647C41.1474 17.6642 41.2023 17.1136 41.0952 16.5823C40.9881 16.051 40.7236 15.563 40.3353 15.18C39.947 14.797 39.4522 14.5361 38.9136 14.4304C38.375 14.3248 37.8167 14.379 37.3093 14.5863C36.8019 14.7936 36.3683 15.1446 36.0632 15.595C35.7581 16.0454 35.5952 16.5749 35.5952 17.1166C35.5961 17.8427 35.8889 18.5388 36.4094 19.0523C36.93 19.5657 37.6357 19.8545 38.3719 19.8554Z" fill="#BEF1FF"></path><path d="M57.3453 17.1166C58.2604 17.1166 59.1549 16.8489 59.9158 16.3475C60.6767 15.846 61.2697 15.1333 61.6199 14.2994C61.9701 13.4655 62.0617 12.5479 61.8832 11.6627C61.7047 10.7774 61.264 9.96425 60.6169 9.32602C59.9699 8.68779 59.1455 8.25316 58.248 8.07707C57.3505 7.90098 56.4202 7.99136 55.5748 8.33677C54.7294 8.68217 54.0068 9.2671 53.4984 10.0176C52.99 10.7681 52.7186 11.6504 52.7186 12.553C52.7186 13.7633 53.2061 14.9241 54.0738 15.7799C54.9414 16.6358 56.1183 17.1166 57.3453 17.1166Z" fill="#BEF1FF"></path><path d="M69.1422 111.858C71.9636 111.858 74.3505 112.958 75.1525 114.477C75.2505 114.37 75.3464 114.265 75.4401 114.162V111.865L69.1422 111.858Z" fill="#480023"></path><path d="M69.1421 111.858H62.8539V114.156C62.9455 114.267 63.0413 114.372 63.1415 114.471C63.9339 112.958 66.3239 111.858 69.1421 111.858Z" fill="#480023"></path><path d="M51.1144 109.201C51.7464 109.201 52.3642 109.017 52.8896 108.67C53.4151 108.324 53.8246 107.832 54.0665 107.256C54.3083 106.68 54.3716 106.046 54.2483 105.435C54.125 104.824 53.8207 104.262 53.3738 103.821C52.927 103.381 52.3576 103.08 51.7378 102.959C51.118 102.837 50.4755 102.9 49.8917 103.138C49.3078 103.377 48.8088 103.781 48.4577 104.299C48.1066 104.817 47.9192 105.427 47.9192 106.05C47.9192 106.886 48.2558 107.687 48.855 108.278C49.4543 108.869 50.267 109.201 51.1144 109.201Z" fill="#FFB0C8"></path><path d="M87.5819 109.201C88.2138 109.201 88.8316 109.017 89.357 108.67C89.8825 108.324 90.292 107.832 90.5339 107.256C90.7757 106.68 90.839 106.046 90.7157 105.435C90.5924 104.824 90.2881 104.262 89.8412 103.821C89.3944 103.381 88.825 103.08 88.2052 102.959C87.5854 102.837 86.9429 102.9 86.3591 103.138C85.7752 103.377 85.2762 103.781 84.9251 104.299C84.574 104.817 84.3866 105.427 84.3866 106.05C84.3866 106.886 84.7232 107.687 85.3225 108.278C85.9217 108.869 86.7344 109.201 87.5819 109.201Z" fill="#FFB0C8"></path><path d="M54.6931 91.9714C53.5058 91.9713 52.3551 92.3772 51.4373 93.1201C50.5194 93.863 49.8911 94.8968 49.6594 96.0454C49.4278 97.194 49.6071 98.3863 50.1668 99.4191C50.7266 100.452 51.6321 101.261 52.7291 101.709C53.8261 102.157 55.0466 102.216 56.1828 101.876C57.3189 101.536 58.3004 100.818 58.9598 99.8441C59.6192 98.8702 59.9158 97.7009 59.7991 96.5355C59.6824 95.37 59.1596 94.2805 58.3197 93.4527C57.3577 92.5044 56.0532 91.9716 54.6931 91.9714ZM53.0955 93.7111C53.4127 93.7101 53.723 93.8023 53.987 93.9759C54.2509 94.1492 54.4566 94.3962 54.5778 94.6852C54.699 94.9743 54.7302 95.2924 54.6676 95.599C54.6072 95.8906 54.4643 96.1594 54.2555 96.3742C54.0468 96.5891 53.7805 96.7412 53.4877 96.813C53.1949 96.8848 52.8875 96.8734 52.601 96.78C52.3145 96.6866 52.0606 96.5151 51.8688 96.2854C51.677 96.0556 51.5552 95.777 51.5172 95.4817C51.4793 95.1865 51.527 94.8867 51.6546 94.617C51.7823 94.3473 51.9848 94.1188 52.2387 93.958C52.4925 93.7971 52.7874 93.7104 53.0891 93.708L53.0955 93.7111Z" fill="#003254"></path><path d="M53.0826 96.8722C53.3986 96.8722 53.7075 96.7798 53.9702 96.6066C54.2329 96.4335 54.4377 96.1874 54.5586 95.8995C54.6795 95.6115 54.7112 95.2947 54.6495 94.989C54.5879 94.6833 54.4357 94.4025 54.2123 94.1821C53.9889 93.9618 53.7042 93.8117 53.3943 93.7509C53.0844 93.6901 52.7632 93.7213 52.4712 93.8405C52.1793 93.9598 51.9298 94.1618 51.7542 94.4209C51.5787 94.6801 51.485 94.9847 51.485 95.2964C51.485 95.7143 51.6533 96.1151 51.9529 96.4107C52.2525 96.7062 52.6589 96.8722 53.0826 96.8722Z" fill="white"></path><path d="M77.7788 97.033C77.7786 98.2039 78.1901 99.3387 78.943 100.244C79.6959 101.149 80.7438 101.769 81.9081 101.998C83.0723 102.226 84.281 102.05 85.3281 101.498C86.3752 100.947 87.196 100.054 87.6507 98.9723C88.1054 97.8906 88.1658 96.687 87.8216 95.5663C87.4774 94.4457 86.75 93.4774 85.7632 92.8264C84.7765 92.1755 83.5914 91.8821 82.4099 91.9963C81.2284 92.1105 80.1237 92.6252 79.2838 93.4527C78.8059 93.9221 78.4269 94.4801 78.1686 95.0945C77.9103 95.709 77.7779 96.3678 77.7788 97.033ZM81.2936 96.8722C80.9766 96.8726 80.6666 96.7798 80.4031 96.6058C80.1397 96.4319 79.9347 96.1845 79.8142 95.8952C79.692 95.6064 79.6597 95.2882 79.7215 94.9813C79.7861 94.6749 79.9393 94.3936 80.1625 94.1713C80.311 94.0248 80.4874 93.9086 80.6814 93.8293C80.8755 93.75 81.0835 93.7092 81.2936 93.7092C81.5037 93.7092 81.7117 93.75 81.9058 93.8293C82.0998 93.9086 82.2762 94.0248 82.4247 94.1713C82.5733 94.3178 82.6911 94.4918 82.7715 94.6832C82.8519 94.8746 82.8932 95.0798 82.8932 95.287C82.8932 95.4942 82.8519 95.6994 82.7715 95.8908C82.6911 96.0822 82.5733 96.2561 82.4247 96.4027C82.2761 96.5489 82.0997 96.6648 81.9056 96.7438C81.7115 96.8227 81.5035 96.8632 81.2936 96.8628V96.8722Z" fill="#003254"></path><path d="M81.3064 96.8722C81.6224 96.8722 81.9312 96.7798 82.194 96.6066C82.4567 96.4335 82.6615 96.1874 82.7824 95.8995C82.9033 95.6115 82.935 95.2947 82.8733 94.989C82.8117 94.6833 82.6595 94.4025 82.4361 94.1821C82.2126 93.9618 81.928 93.8117 81.6181 93.7509C81.3081 93.6901 80.9869 93.7213 80.695 93.8405C80.4031 93.9598 80.1535 94.1618 79.978 94.4209C79.8024 94.6801 79.7087 94.9847 79.7087 95.2964C79.7087 95.7143 79.8771 96.1151 80.1767 96.4107C80.4763 96.7062 80.8827 96.8722 81.3064 96.8722Z" fill="white"></path><path d="M69.1422 111.858H75.44V114.156C76.6997 112.572 77.5132 110.688 77.7981 108.694C77.7981 108.694 72.1265 110.166 69.1326 110.166C66.1386 110.166 60.4702 108.694 60.4702 108.694C60.7552 110.688 61.5686 112.572 62.8283 114.156V111.858H69.1422Z" fill="#480023"></path><path d="M75.1524 114.477C74.3504 112.958 71.9571 111.858 69.1421 111.858C66.3271 111.858 63.9338 112.958 63.135 114.477C63.9237 115.26 64.8614 115.881 65.8943 116.304C66.9271 116.728 68.0347 116.946 69.1533 116.946C70.2719 116.946 71.3795 116.728 72.4123 116.304C73.4451 115.881 74.3829 115.26 75.1715 114.477H75.1524Z" fill="#F1003C"></path><path d="M23.0443 110.314C22.624 110.252 22.2094 110.158 21.8045 110.03C21.4233 109.929 21.0487 109.805 20.683 109.659L20.421 109.57C16.7911 108.259 14.1934 106.154 14.302 104.707L10.9342 116.104C10.9374 116.113 10.9374 116.123 10.9342 116.132C10.7361 116.249 8.76784 117.459 5.36489 119.835C1.77342 122.338 -1.28444 126.217 0.699819 127.147C2.07058 127.777 5.30099 124.103 5.30099 124.103C5.30099 124.103 6.06785 123.334 4.78655 124.812C3.50525 126.29 -1.28444 132.691 0.313186 134.178C2.00348 135.754 7.71022 127.532 7.71022 127.532C7.71022 127.532 1.79259 137.339 4.38075 138.619C6.78998 139.814 9.67849 132.536 10.7713 130.009C10.7781 129.999 10.7884 129.992 10.8 129.99C10.8056 129.987 10.8116 129.986 10.8176 129.986C10.8236 129.986 10.8296 129.987 10.8352 129.99C10.8458 129.994 10.8547 130.002 10.8607 130.012C10.8636 130.023 10.8636 130.035 10.8607 130.047C10.1003 132.568 8.41956 138.871 10.5764 139.416C12.7332 139.962 15.2446 132.105 15.9061 129.883C15.9086 129.871 15.9155 129.861 15.9252 129.854C15.9356 129.851 15.9468 129.851 15.9572 129.854C15.9666 129.852 15.9765 129.852 15.9859 129.854C15.9957 129.861 16.0025 129.871 16.0051 129.883C15.8805 131.307 15.7016 135.319 17.6347 135.329C19.833 135.329 19.015 133.485 20.0407 129.52C20.7957 126.883 20.8834 124.103 20.2963 121.424C20.2922 121.418 20.2899 121.412 20.2899 121.405C20.2899 121.398 20.2922 121.391 20.2963 121.386L28.1055 109.898C27.3866 110.658 25.4183 110.799 23.0443 110.314Z" fill="#FED241"></path><path d="M20.4178 109.583L20.6766 109.671C19.4944 109.195 18.2067 108.574 18.2067 108.574L19.8842 103.642C17.0564 103.037 14.7718 103.305 14.3628 104.43C14.3272 104.524 14.3057 104.623 14.2989 104.723C14.187 106.16 16.7912 108.259 20.4178 109.583Z" fill="#E2B947"></path><path d="M23.0442 110.314C25.4183 110.79 27.3769 110.661 28.1374 109.904C28.2604 109.791 28.3564 109.652 28.4186 109.498C28.7797 108.521 27.6517 107.125 25.6835 105.927C24.399 108.174 23.1464 110.32 23.0442 110.314Z" fill="#E2B947"></path><path d="M25.4055 87.3669L25.284 87.7231L19.8841 103.629L18.2065 108.562C18.2065 108.562 19.4846 109.192 20.6957 109.659C21.0618 109.804 21.4363 109.928 21.8172 110.03C22.2231 110.158 22.6387 110.253 23.0601 110.314C23.1624 110.314 24.4117 108.174 25.6994 105.921C26.5749 104.383 27.4696 102.797 28.0192 101.824L28.5656 100.84L25.4055 87.3669Z" fill="#DFF6FC"></path><path d="M46.1427 146.876C45.9418 146.877 45.7491 146.955 45.6058 147.094C45.4625 147.233 45.38 147.422 45.3758 147.62L45.28 155.134C45.2796 155.243 45.2545 155.351 45.2065 155.449C45.1588 155.547 45.0902 155.634 45.0052 155.704C44.9187 155.773 44.8186 155.824 44.7112 155.852C44.6059 155.874 44.497 155.874 44.3917 155.852C41.6873 155.405 38.9348 155.31 36.2054 155.572C31.8311 155.931 31.0739 161.226 30.9652 163.712L30.9269 165.547C30.9269 165.547 30.9652 168.182 33.0741 169.307C35.183 170.432 41.1453 170 44.6537 169.181C47.849 168.434 53.5813 165.67 54.6069 165.172L54.722 165.115H54.7635C54.8658 165.048 54.9494 164.957 55.0064 164.85C55.0665 164.745 55.0995 164.627 55.1022 164.507L55.4217 147.655C55.4245 147.554 55.406 147.455 55.3674 147.362C55.3304 147.269 55.275 147.184 55.2045 147.113C55.1328 147.041 55.0469 146.984 54.952 146.946C54.8589 146.907 54.7591 146.887 54.6581 146.886H46.1427V146.876Z" fill="#003254"></path><path d="M86.8502 136.643L80.1401 137.008C80.0981 137.005 80.0558 137.01 80.0163 137.025C79.9769 137.04 79.9414 137.063 79.9127 137.094C79.8839 137.124 79.8627 137.161 79.8506 137.201C79.8385 137.241 79.8359 137.283 79.843 137.324L80.0443 137.954L80.1721 138.357L82.9456 146.961L88.1794 146.82L87.2208 137.324L87.1761 136.848C87.1721 136.814 87.1601 136.782 87.1409 136.753C87.1051 136.71 87.059 136.677 87.0067 136.655C86.9563 136.639 86.9026 136.635 86.8502 136.643Z" fill="#C0EFFF"></path><path d="M82.1118 146.993C82.0101 146.997 81.9102 147.02 81.8178 147.062C81.7251 147.102 81.6422 147.161 81.575 147.236C81.5045 147.307 81.451 147.393 81.4184 147.488C81.3837 147.582 81.3674 147.681 81.3705 147.781L82.1757 164.62C82.1821 164.74 82.2172 164.857 82.2779 164.96C82.3415 165.064 82.4278 165.152 82.5304 165.219H82.5751L82.6933 165.269C83.735 165.745 89.5439 168.345 92.752 169.007C96.2668 169.732 102.255 170 104.332 168.818C106.408 167.636 106.373 165.017 106.373 165.017L106.284 163.189C106.099 160.706 105.194 155.43 100.81 155.193C98.071 155.008 95.3188 155.177 92.6242 155.698C92.5188 155.72 92.41 155.72 92.3046 155.698C92.1969 155.672 92.0957 155.625 92.0075 155.559C91.9204 155.49 91.8486 155.404 91.7966 155.307C91.7477 155.209 91.7205 155.101 91.7167 154.992L91.3972 147.485C91.3931 147.387 91.3696 147.291 91.3279 147.202C91.2863 147.114 91.2273 147.034 91.1544 146.968C91.0082 146.833 90.8145 146.759 90.6144 146.763L88.2051 146.832L82.9745 146.974L82.1118 146.993Z" fill="#003254"></path><path d="M133.264 124.396C131.986 122.914 132.75 123.69 132.75 123.69C132.75 123.69 135.984 127.377 137.351 126.731C139.329 125.785 136.278 121.922 132.686 119.419C129.283 117.046 127.315 115.839 127.117 115.716C127.114 115.707 127.114 115.697 127.117 115.688L123.746 104.291C123.864 105.741 121.26 107.843 117.63 109.154L117.368 109.246C117.002 109.391 116.628 109.514 116.247 109.614C115.842 109.743 115.427 109.838 115.007 109.898C112.633 110.374 110.674 110.245 109.914 109.491L117.716 120.992C117.721 121.004 117.721 121.017 117.716 121.03C117.113 123.712 117.189 126.499 117.937 129.145C118.985 133.113 118.167 134.96 120.343 134.95C122.26 134.95 122.097 130.929 121.972 129.504C121.976 129.494 121.983 129.485 121.992 129.479C122.001 129.476 122.011 129.476 122.02 129.479C122.031 129.476 122.042 129.476 122.052 129.479C122.061 129.485 122.068 129.494 122.072 129.504C122.733 131.711 125.228 139.59 127.401 139.038C129.574 138.487 127.884 132.183 127.117 129.671C127.114 129.666 127.113 129.66 127.113 129.654C127.113 129.648 127.114 129.642 127.117 129.637C127.123 129.627 127.132 129.619 127.142 129.615C127.148 129.612 127.154 129.611 127.16 129.611C127.166 129.611 127.172 129.612 127.178 129.615C127.19 129.618 127.2 129.626 127.206 129.637C128.325 132.158 131.175 139.442 133.597 138.244C136.188 136.968 130.261 127.144 130.261 127.144C130.261 127.144 135.968 135.366 137.655 133.791C139.3 132.294 134.546 125.899 133.264 124.396Z" fill="#FED241"></path><path d="M114.975 109.898C114.876 109.898 113.623 107.758 112.339 105.505C110.371 106.727 109.243 108.098 109.604 109.075C109.666 109.231 109.762 109.371 109.885 109.485C110.649 110.251 112.604 110.396 114.975 109.898Z" fill="#E2B947"></path><path d="M119.809 108.158C119.809 108.158 118.531 108.789 117.339 109.255L117.601 109.164C121.231 107.856 123.829 105.751 123.717 104.304C123.711 104.203 123.691 104.103 123.656 104.008C123.238 102.879 120.96 102.618 118.135 103.22L119.809 108.158Z" fill="#E2B947"></path><path d="M114.975 109.898C115.396 109.837 115.812 109.742 116.218 109.614C116.599 109.511 116.973 109.387 117.339 109.242C118.525 108.767 119.809 108.146 119.809 108.146L118.132 103.226L112.745 87.3416L112.614 86.954L109.46 100.424L110.019 101.426C110.572 102.413 111.463 103.985 112.329 105.523C113.604 107.783 114.876 109.914 114.975 109.898Z" fill="#C0EFFF"></path></g><defs><linearGradient id="paint0_linear_1486_5220" x1="78.2838" y1="71.5551" x2="66.0589" y2="47.6198" gradientUnits="userSpaceOnUse"><stop stop-color="#77E3FF"></stop><stop offset="1" stop-color="#A9EDFF"></stop></linearGradient><clipPath id="clip0_1486_5220"><rect width="138" height="170" fill="white"></rect></clipPath></defs></svg>