<svg xmlns="http://www.w3.org/2000/svg" viewBox="0 0 140 140" fill="none"><path d="M101.452 66.651C79.3188 49.6614 73.372 21.2831 35.8329 23.5235C-1.70618 25.7639 -17.5544 88.8122 39.178 112.019C91.2123 133.303 130.981 122.848 136.185 102.311C142.57 77.1099 109.595 72.9017 101.452 66.651Z" fill="#DFF5FE"></path><path d="M69.499 113.554H19.9697L29.7819 127.153H69.499H109.216L119.032 113.554H69.499Z" fill="#E8B721"></path><path d="M55.9549 21.3354L37.3786 18.7888L34.4238 46.0133L52.4463 58.4661L53.8438 45.5092L42.0246 41.6931L43.712 26.4248L55.9549 28.4486V21.3354Z" fill="#FFB5C9"></path><g style="mix-blend-mode:multiply" opacity="0.33"><path d="M37.338 47.8915C37.3083 47.9176 37.2749 47.94 37.2451 47.9661L52.4429 58.4698L53.8441 45.5129L42.8165 41.9507C41.2146 44.2583 39.3302 46.3082 37.338 47.8915Z" fill="#FFB5C9"></path></g><g style="mix-blend-mode:multiply" opacity="0.33"><path d="M47.0198 20.1107C47.4881 22.3996 47.6926 24.752 47.6703 27.0783L55.9512 28.4487V21.3317L47.0161 20.1069L47.0198 20.1107Z" fill="#FFB5C9"></path></g><path d="M97.1067 16.3998L53.4614 9.53345L44.1214 69.4543L87.7667 76.3207L97.1067 16.3998Z" fill="#FFB5C9"></path><g style="mix-blend-mode:multiply" opacity="0.33"><path d="M89.246 15.1631C86.7707 20.8201 83.7304 26.2306 80.2961 31.2976C76.6946 36.6111 72.1267 41.7789 66.927 45.5092C64.2881 47.4023 61.3965 49.0901 58.5346 50.6061C57.7095 51.0429 56.8546 51.3902 55.9738 51.6964C52.3277 52.951 49.4472 53.7239 46.511 54.1198L44.1211 69.4515L87.7668 76.3183L97.107 16.399L89.246 15.1631Z" fill="#FFB5C9"></path></g><path d="M88.0381 68.4099V100.22L104.923 98.9464V69.6832L88.0381 68.4099ZM99.8573 92.3634H88.8818V76.2662H99.8573V92.3634Z" fill="#FFE7ED"></path><g style="mix-blend-mode:multiply" opacity="0.33"><path d="M95.416 92.3635H88.882V76.2663H98.5566C99.9541 73.7795 101.705 71.4793 103.63 69.5825L88.042 68.4062V100.216L97.0068 99.5402C96.1668 97.2401 95.6576 94.813 95.416 92.3598V92.3635Z" fill="#FFB5C9"></path></g><path d="M90.1489 108.703H35.6912L34.4238 60.7776H91.4163L90.1489 108.703Z" fill="#FFE7ED"></path><path d="M65.6631 78.1668C76.6387 79.4401 70.1753 90.0782 79.5935 94.2827C83.2805 95.9294 87.3615 94.1968 90.5913 91.9788L91.4164 60.7739H54.0037C49.3169 71.7369 55.7766 77.0168 65.6669 78.1631L65.6631 78.1668Z" fill="#FFD000"></path><path d="M71.1525 90.8883C61.7974 83.0581 57.6421 96.2279 62.9199 98.2218C68.1977 100.216 76.2184 95.1264 71.1525 90.8883Z" fill="#FFD000"></path><g style="mix-blend-mode:multiply" opacity="0.33"><path d="M39.5306 60.7776H34.4238L35.6912 108.703H90.1489L90.2381 105.294C71.7845 104.674 45.1875 100.007 39.5269 60.7776H39.5306Z" fill="#FFB5C9"></path></g><path d="M69.499 108.49H7.82715L10.217 110.72C13.6513 113.927 18.1634 115.708 22.8502 115.708H116.148C120.835 115.708 125.347 113.927 128.781 110.72L131.171 108.49H69.499Z" fill="#FFD000"></path><path d="M75.9326 64.1719H94.7951" stroke="#41576A" stroke-width="1.5" stroke-linecap="round" stroke-linejoin="round"></path><path d="M85.3618 73.645V54.6951" stroke="#41576A" stroke-width="1.5" stroke-linecap="round" stroke-linejoin="round"></path><path d="M85.5069 35.7524C69.6513 35.7524 56.7988 48.6646 56.7988 64.5937C56.7988 80.5229 69.6513 93.435 85.5069 93.435C101.363 93.435 114.215 80.5229 114.215 64.5937C114.215 48.6646 101.363 35.7524 85.5069 35.7524ZM85.5069 91.3141C70.8184 91.3141 58.9099 79.3504 58.9099 64.5937C58.9099 49.837 70.8184 37.8733 85.5069 37.8733C100.195 37.8733 112.104 49.837 112.104 64.5937C112.104 79.3504 100.195 91.3141 85.5069 91.3141Z" fill="#41576A"></path><path d="M85.6591 28.5459H85.3543C84.7385 28.5459 84.2393 29.0474 84.2393 29.6661V54.9937C84.2393 55.6124 84.7385 56.1139 85.3543 56.1139H85.6591C86.2749 56.1139 86.7741 55.6124 86.7741 54.9937V29.6661C86.7741 29.0474 86.2749 28.5459 85.6591 28.5459Z" fill="#41576A"></path><path d="M85.6591 72.2297H85.3543C84.7385 72.2297 84.2393 72.7313 84.2393 73.3499V98.6776C84.2393 99.2962 84.7385 99.7977 85.3543 99.7977H85.6591C86.2749 99.7977 86.7741 99.2962 86.7741 98.6776V73.3499C86.7741 72.7313 86.2749 72.2297 85.6591 72.2297Z" fill="#41576A"></path><path d="M50.0454 64.015V64.3212C50.0454 64.9399 50.5446 65.4414 51.1604 65.4414H76.3711C76.9869 65.4414 77.4861 64.9399 77.4861 64.3212V64.015C77.4861 63.3964 76.9869 62.8948 76.3711 62.8948H51.1604C50.5446 62.8948 50.0454 63.3964 50.0454 64.015Z" fill="#41576A"></path><path d="M93.5278 64.015V64.3212C93.5278 64.9399 94.027 65.4414 94.6429 65.4414H119.854C120.469 65.4414 120.969 64.9399 120.969 64.3212V64.015C120.969 63.3964 120.469 62.8948 119.854 62.8948H94.6429C94.027 62.8948 93.5278 63.3964 93.5278 64.015Z" fill="#41576A"></path><g style="mix-blend-mode:screen" opacity="0.26"><path d="M131.171 108.49H101.441L94.7952 115.708C94.7952 115.708 88.25 124.184 69.499 127.153H109.216L117.512 115.652C121.704 115.342 125.681 113.614 128.777 110.72L131.167 108.49H131.171Z" fill="#FFD000"></path></g></svg>